<?xml version="1.0" encoding="UTF-8"?>
<svg width="270px" height="270px" viewBox="0 0 270 270" version="1.1" xmlns="http://www.w3.org/2000/svg" xmlns:xlink="http://www.w3.org/1999/xlink">
    <!-- Generator: Sketch 55.2 (78181) - https://sketchapp.com -->
    <title>Sun</title>
    <desc>Created with Sketch.</desc>
    <g id="Page-1" stroke="none" stroke-width="1" fill="none" fill-rule="evenodd">
        <g id="Weather-Icons" transform="translate(-37.000000, -28.000000)">
            <g id="Sun" transform="translate(37.000000, 28.000000)">
                <path d="M143.954304,260.650455 C143.954304,252.716439 143.954304,244.782423 143.954304,236.848407 C143.954304,232.130072 139.806978,227.622108 134.938377,227.83248 C130.039723,228.042852 125.92245,231.799488 125.92245,236.848407 C125.92245,244.782423 125.92245,252.716439 125.92245,260.650455 C125.92245,265.36879 130.069776,269.876754 134.938377,269.666382 C139.837031,269.456011 143.954304,265.699374 143.954304,260.650455 L143.954304,260.650455 Z" id="Path" fill="#000000" fill-rule="nonzero"></path>
                <path d="M143.954304,32.9982935 C143.954304,25.0642776 143.954304,17.1302617 143.954304,9.19624573 C143.954304,4.4779105 139.806978,-0.0300530906 134.938377,0.180318544 C130.039723,0.390690178 125.92245,4.14732651 125.92245,9.19624573 C125.92245,17.1302617 125.92245,25.0642776 125.92245,32.9982935 C125.92245,37.7166287 130.069776,42.2245923 134.938377,42.0142207 C139.837031,41.8038491 143.954304,38.0472127 143.954304,32.9982935 L143.954304,32.9982935 Z" id="Path" fill="#000000" fill-rule="nonzero"></path>
                <path d="M260.650455,125.92245 C252.716439,125.92245 244.782423,125.92245 236.848407,125.92245 C232.130072,125.92245 227.622108,130.069776 227.83248,134.938377 C228.042852,139.837031 231.799488,143.954304 236.848407,143.954304 C244.782423,143.954304 252.716439,143.954304 260.650455,143.954304 C265.36879,143.954304 269.876754,139.806978 269.666382,134.938377 C269.456011,130.039723 265.699374,125.92245 260.650455,125.92245 L260.650455,125.92245 Z" id="Path" fill="#000000" fill-rule="nonzero"></path>
                <path d="M32.9982935,125.92245 C25.0642776,125.92245 17.1302617,125.92245 9.19624573,125.92245 C4.4779105,125.92245 -0.0300530906,130.069776 0.180318544,134.938377 C0.390690178,139.837031 4.14732651,143.954304 9.19624573,143.954304 C17.1302617,143.954304 25.0642776,143.954304 32.9982935,143.954304 C37.7166287,143.954304 42.2245923,139.806978 42.0142207,134.938377 C41.8038491,130.039723 38.0472127,125.92245 32.9982935,125.92245 L32.9982935,125.92245 Z" id="Path" fill="#000000" fill-rule="nonzero"></path>
                <path d="M205.593193,239.252655 C201.626185,232.40055 197.659177,225.518392 193.692169,218.666287 C191.317975,214.579067 185.427569,212.805935 181.370402,215.420554 C177.253129,218.065226 175.600209,223.384623 178.124668,227.742321 C182.091676,234.594425 186.058684,241.476583 190.025692,248.328688 C192.399886,252.415908 198.290292,254.189041 202.347459,251.574422 C206.464733,248.959803 208.117653,243.640406 205.593193,239.252655 L205.593193,239.252655 Z" id="Path" fill="#000000" fill-rule="nonzero"></path>
                <path d="M91.7520857,42.10438 C87.7850777,35.2522753 83.8180698,28.3701176 79.8510618,21.5180129 C77.4768677,17.4307926 71.5864619,15.6576602 67.5292947,18.2722791 C63.4120212,20.9169511 61.7591013,26.2363481 64.2835609,30.5940463 C68.2505688,37.4461509 72.2175768,44.3283087 76.1845848,51.1804133 C78.5587789,55.2676337 84.4491847,57.040766 88.5063519,54.4261471 C92.6236253,51.7814752 94.2765453,46.4620781 91.7520857,42.10438 L91.7520857,42.10438 Z" id="Path" fill="#000000" fill-rule="nonzero"></path>
                <path d="M239.252655,64.2835609 C232.40055,68.2505688 225.518392,72.2175768 218.666287,76.1845848 C214.579067,78.5587789 212.805935,84.4491847 215.420554,88.5063519 C218.065226,92.6236253 223.384623,94.2765453 227.742321,91.7520857 C234.594425,87.7850777 241.476583,83.8180698 248.328688,79.8510618 C252.415908,77.4768677 254.189041,71.5864619 251.574422,67.5292947 C248.959803,63.4120212 243.640406,61.7591013 239.252655,64.2835609 L239.252655,64.2835609 Z" id="Path" fill="#000000" fill-rule="nonzero"></path>
                <path d="M42.10438,178.124668 C35.2522753,182.091676 28.3701176,186.058684 21.5180129,190.025692 C17.4307926,192.399886 15.6576602,198.290292 18.2722791,202.347459 C20.9169511,206.464733 26.2363481,208.117653 30.5940463,205.593193 C37.4461509,201.626185 44.3283087,197.659177 51.1804133,193.692169 C55.2676337,191.317975 57.040766,185.427569 54.4261471,181.370402 C51.7814752,177.253129 46.4620781,175.600209 42.10438,178.124668 L42.10438,178.124668 Z" id="Path" fill="#000000" fill-rule="nonzero"></path>
                <path d="M76.1845848,218.666287 C72.2175768,225.518392 68.2505688,232.40055 64.2835609,239.252655 C61.9093667,243.339875 63.2016496,249.32044 67.5292947,251.574422 C71.8268866,253.858457 77.3566553,252.716439 79.8510618,248.328688 C83.8180698,241.476583 87.7850777,234.594425 91.7520857,227.742321 C94.1262799,223.6551 92.833997,217.674535 88.5063519,215.420554 C84.20876,213.166572 78.7090444,214.308589 76.1845848,218.666287 L76.1845848,218.666287 Z" id="Path" fill="#000000" fill-rule="nonzero"></path>
                <path d="M190.025692,21.5180129 C186.058684,28.3701176 182.091676,35.2522753 178.124668,42.10438 C175.750474,46.1916003 177.042757,52.1721653 181.370402,54.4261471 C185.667994,56.710182 191.197763,55.5681646 193.692169,51.1804133 C197.659177,44.3283087 201.626185,37.4461509 205.593193,30.5940463 C207.967387,26.5068259 206.675104,20.5262609 202.347459,18.2722791 C198.049867,15.9882442 192.520099,17.1603148 190.025692,21.5180129 L190.025692,21.5180129 Z" id="Path" fill="#000000" fill-rule="nonzero"></path>
                <path d="M51.2104664,76.1845848 C44.3583618,72.2175768 37.476204,68.2505688 30.6240994,64.2835609 C26.536879,61.9093667 20.556314,63.2016496 18.3023322,67.5292947 C16.0182973,71.8268866 17.1603148,77.3566553 21.548066,79.8510618 C28.4001706,83.8180698 35.2823284,87.7850777 42.1344331,91.7520857 C46.2216534,94.1262799 52.2022184,92.833997 54.4562002,88.5063519 C56.710182,84.20876 55.5681646,78.7090444 51.2104664,76.1845848 L51.2104664,76.1845848 Z" id="Path" fill="#000000" fill-rule="nonzero"></path>
                <path d="M248.358741,190.025692 C241.506636,186.058684 234.624479,182.091676 227.772374,178.124668 C223.685154,175.750474 217.704589,177.042757 215.450607,181.370402 C213.166572,185.667994 214.308589,191.197763 218.696341,193.692169 C225.548445,197.659177 232.430603,201.626185 239.282708,205.593193 C243.369928,207.967387 249.350493,206.675104 251.604475,202.347459 C253.88851,198.049867 252.716439,192.520099 248.358741,190.025692 L248.358741,190.025692 Z" id="Path" fill="#000000" fill-rule="nonzero"></path>
                <path d="M198.049867,134.938377 C198.049867,138.124005 197.839496,141.309632 197.418752,144.49526 C197.538965,143.683826 197.629124,142.902446 197.749336,142.091013 C196.877797,148.402162 195.224877,154.563045 192.760523,160.453451 C193.061054,159.732177 193.361585,159.010903 193.662116,158.289628 C191.828878,162.58722 189.635002,166.704494 187.050436,170.551289 C186.419321,171.482935 185.758153,172.414581 185.096985,173.316174 C184.916667,173.586651 184.706295,173.827076 184.525976,174.097554 C185.457622,172.925484 185.607888,172.685059 185.036879,173.406333 C184.736348,173.76697 184.435817,174.15766 184.135286,174.518297 C182.692738,176.261377 181.16003,177.914297 179.567217,179.50711 C177.974403,181.099924 176.29143,182.632632 174.578403,184.07518 C174.217766,184.375711 173.827076,184.676242 173.466439,184.976773 C172.745165,185.547782 172.955537,185.367463 174.15766,184.46587 C173.887182,184.676242 173.646758,184.85656 173.37628,185.036879 C172.474687,185.698047 171.543041,186.359215 170.611396,186.99033 C166.734547,189.574896 162.647327,191.798824 158.349735,193.60201 C159.071009,193.301479 159.792283,193.000948 160.513557,192.700417 C154.623151,195.164771 148.462268,196.817691 142.151119,197.68923 C142.962552,197.569018 143.743932,197.478859 144.555366,197.358646 C138.214164,198.17008 131.782802,198.17008 125.4416,197.358646 C126.253034,197.478859 127.034414,197.569018 127.845848,197.68923 C121.534699,196.817691 115.373815,195.164771 109.483409,192.700417 C110.204683,193.000948 110.925958,193.301479 111.647232,193.60201 C107.34964,191.768771 103.232366,189.574896 99.3855707,186.99033 C98.4539249,186.359215 97.5222791,185.698047 96.6206864,185.036879 C96.3502086,184.85656 96.1097838,184.646189 95.839306,184.46587 C97.0113766,185.397516 97.2518013,185.547782 96.5305271,184.976773 C96.16989,184.676242 95.7791998,184.375711 95.4185628,184.07518 C93.6754835,182.632632 92.0225635,181.099924 90.4297497,179.50711 C88.8369359,177.914297 87.3042283,176.231323 85.8616799,174.518297 C85.561149,174.15766 85.2606181,173.76697 84.9600872,173.406333 C84.3890785,172.685059 84.569397,172.89543 85.4709898,174.097554 C85.2606181,173.827076 85.0802996,173.586651 84.899981,173.316174 C84.238813,172.414581 83.5776451,171.482935 82.9465301,170.551289 C80.3619644,166.674441 78.1380356,162.58722 76.3348502,158.289628 C76.6353811,159.010903 76.935912,159.732177 77.2364429,160.453451 C74.7720895,154.563045 73.1191695,148.402162 72.2476299,142.091013 C72.3678422,142.902446 72.4580015,143.683826 72.5782139,144.49526 C71.7667804,138.154058 71.7667804,131.722696 72.5782139,125.381494 C72.4580015,126.192928 72.3678422,126.974308 72.2476299,127.785741 C73.1191695,121.474592 74.7720895,115.313709 77.2364429,109.423303 C76.935912,110.144577 76.6353811,110.865851 76.3348502,111.587126 C78.1680887,107.289534 80.3619644,103.17226 82.9465301,99.3254645 C83.5776451,98.3938187 84.238813,97.4621729 84.899981,96.5605802 C85.0802996,96.2901024 85.2906712,96.0496777 85.4709898,95.7791998 C84.539344,96.9512704 84.3890785,97.1916951 84.9600872,96.4704209 C85.2606181,96.1097838 85.561149,95.7190937 85.8616799,95.3584566 C87.3042283,93.6153773 88.8369359,91.9624573 90.4297497,90.3696435 C92.0225635,88.7768297 93.7055366,87.2441221 95.4185628,85.8015738 C95.7791998,85.5010429 96.16989,85.2005119 96.5305271,84.899981 C97.2518013,84.3289723 97.0414297,84.5092909 95.839306,85.4108836 C96.1097838,85.2005119 96.3502086,85.0201934 96.6206864,84.8398749 C97.5222791,84.1787069 98.4539249,83.5175389 99.3855707,82.886424 C103.262419,80.3018582 107.34964,78.0779295 111.647232,76.274744 C110.925958,76.5752749 110.204683,76.8758058 109.483409,77.1763367 C115.373815,74.7119833 121.534699,73.0590633 127.845848,72.1875237 C127.034414,72.3077361 126.253034,72.3978953 125.4416,72.5181077 C131.782802,71.7066743 138.214164,71.7066743 144.555366,72.5181077 C143.743932,72.3978953 142.962552,72.3077361 142.151119,72.1875237 C148.462268,73.0590633 154.623151,74.7119833 160.513557,77.1763367 C159.792283,76.8758058 159.071009,76.5752749 158.349735,76.274744 C162.647327,78.1079826 166.7646,80.3018582 170.611396,82.886424 C171.543041,83.5175389 172.474687,84.1787069 173.37628,84.8398749 C173.646758,85.0201934 173.887182,85.230565 174.15766,85.4108836 C172.98559,84.4792378 172.745165,84.3289723 173.466439,84.899981 C173.827076,85.2005119 174.217766,85.5010429 174.578403,85.8015738 C176.321483,87.2441221 177.974403,88.7768297 179.567217,90.3696435 C181.16003,91.9624573 182.692738,93.6454304 184.135286,95.3584566 C184.435817,95.7190937 184.736348,96.1097838 185.036879,96.4704209 C185.607888,97.1916951 185.427569,96.9813235 184.525976,95.7791998 C184.736348,96.0496777 184.916667,96.2901024 185.096985,96.5605802 C185.758153,97.4621729 186.419321,98.3938187 187.050436,99.3254645 C189.635002,103.202313 191.858931,107.289534 193.662116,111.587126 C193.361585,110.865851 193.061054,110.144577 192.760523,109.423303 C195.224877,115.313709 196.877797,121.474592 197.749336,127.785741 C197.629124,126.974308 197.538965,126.192928 197.418752,125.381494 C197.839496,128.567122 198.049867,131.752749 198.049867,134.938377 C198.07992,139.656712 202.197194,144.164676 207.065794,143.954304 C211.934395,143.743932 216.111775,139.987296 216.081883,134.938377 C216.021615,118.379124 210.972696,101.669606 201.235495,88.205821 C191.408134,74.621824 178.154721,64.4338263 162.406902,58.5734736 C131.241847,47.0030338 94.186386,56.9806598 72.9989571,82.55584 C61.9694729,95.839306 55.4178991,111.82755 54.035457,129.047971 C52.6830679,145.727436 56.9205537,162.977911 65.666003,177.223075 C73.930603,190.656807 86.222317,201.896663 100.587694,208.448237 C116.636045,215.721085 134.217103,217.824801 151.527683,214.368695 C183.564278,207.967387 209.920838,180.76934 214.909651,148.462268 C215.600872,143.984357 216.051669,139.476394 216.081883,134.938377 C216.111775,130.220042 211.934395,125.712078 207.065794,125.92245 C202.167141,126.132821 198.07992,129.889458 198.049867,134.938377 Z" id="Path" fill="#000000" fill-rule="nonzero"></path>
                <circle id="Oval" fill="#FFE963" cx="135" cy="135" r="63"></circle>
            </g>
        </g>
    </g>
</svg>