<?xml version="1.0" encoding="UTF-8"?>
<svg width="288px" height="294px" viewBox="0 0 288 294" version="1.1" xmlns="http://www.w3.org/2000/svg" xmlns:xlink="http://www.w3.org/1999/xlink">
    <!-- Generator: Sketch 55.2 (78181) - https://sketchapp.com -->
    <title>Group</title>
    <desc>Created with Sketch.</desc>
    <g id="Page-1" stroke="none" stroke-width="1" fill="none" fill-rule="evenodd">
        <g id="Weather-Icons" transform="translate(-1228.000000, -577.000000)" fill-rule="nonzero">
            <g id="Group" transform="translate(1232.000000, 577.000000)">
                <path d="M235.61666,211.290493 C219.177209,219.208516 201.824455,223.472066 183.862833,223.472066 C119.018332,223.472066 66.0467682,170.482224 66.0467682,105.615349 C66.0467682,87.6475288 70.0044138,70.2887875 78.2241393,53.8436641 C79.7463106,50.7982709 79.1374421,47.4483383 76.7019679,45.3165631 C74.2664937,43.1847878 70.9177166,42.5757092 68.1778082,44.0984058 C26.4703124,67.2433943 0.288964733,111.097057 0.288964733,158.605191 C0.288964733,230.78101 59.0447799,289.25256 130.891269,289.25256 C178.68745,289.25256 222.525986,263.366717 245.358557,221.340291 C246.880728,218.599437 246.576294,214.944965 244.140819,212.81319 C242.009779,210.376875 238.661002,209.767797 235.61666,211.290493 Z" id="Path" stroke="#000000" stroke-width="8" fill="#FFE963"></path>
                <path d="M133.812335,139.061251 C135.339196,140.277667 135.94994,142.102291 135.339196,143.926915 L130.453243,163.997779 C129.537126,168.255235 134.117708,171.904483 138.087544,169.471651 L155.799125,158.828011 C157.325985,157.915699 159.46359,157.915699 160.99045,158.828011 L178.70203,169.471651 C182.671867,171.904483 187.252448,168.255235 186.336332,163.997779 L181.450379,143.926915 C181.145007,142.102291 181.755751,140.277667 182.977239,139.061251 L198.551215,125.680675 C201.910307,122.639635 200.078075,117.165763 195.802866,116.861659 L175.342937,115.341139 C173.510705,115.037035 171.678472,114.124723 171.067728,112.300099 L163.128054,93.4456517 C161.295822,89.1881957 155.493753,89.1881957 153.966892,93.4456517 L146.027218,112.300099 C145.416474,114.124723 143.584242,115.341139 141.752009,115.341139 L120.986708,116.861659 C116.406127,117.165763 114.573895,122.639635 118.23836,125.680675 L133.812335,139.061251 Z" id="Path" fill="#000000"></path>
                <path d="M157.244924,40.0884676 C158.468987,40.9990026 158.775003,42.516561 158.468987,44.0341194 L154.490781,60.1202384 C153.572733,63.7623786 157.55094,66.4939837 160.611098,64.6729136 L174.993846,55.8710749 C176.217909,54.9605399 178.054004,54.9605399 179.278068,55.8710749 L193.660815,64.6729136 C196.720974,66.4939837 200.699181,63.7623786 199.781133,60.1202384 L195.802926,44.0341194 C195.49691,42.516561 196.108942,40.9990026 197.02699,40.0884676 L209.879658,29.1620472 C212.633801,26.7339537 211.103721,22.1812785 207.43153,22.1812785 L191.212688,20.6637201 C189.682608,20.6637201 188.458545,19.4496734 187.846513,18.2356267 L181.420179,2.75653108 C179.8901,-0.582097391 175.299861,-0.582097391 173.769782,2.75653108 L167.343448,18.2356267 C166.731416,19.7531851 165.507353,20.6637201 163.977273,20.6637201 L147.146399,21.8777669 C143.474208,22.1812785 141.944129,26.7339537 144.698272,28.8585355 L157.244924,40.0884676 Z" id="Path" fill="#000000"></path>
                <path d="M281.885971,94.1281999 C284.627776,91.6772172 283.104551,87.0816246 279.448812,87.0816246 L262.693341,85.8561332 C261.170117,85.8561332 259.951537,84.6306419 259.342247,83.4051505 L252.944704,67.7801357 C251.421479,64.4100344 246.851805,64.4100344 245.328581,67.7801357 L239.235682,83.0987777 C238.626392,84.6306419 237.407813,85.5497604 235.884588,85.5497604 L219.129117,86.7752518 C215.473378,87.0816246 213.950154,91.6772172 216.691958,93.8218271 L229.487045,104.851249 C230.705625,105.770368 231.010269,107.302232 230.705625,108.834096 L226.745241,125.071857 C225.831306,128.748331 229.79169,131.505686 232.838139,129.667449 L247.15645,120.782637 C248.37503,119.863518 250.202899,119.863518 251.421479,120.782637 L265.739791,129.667449 C268.78624,131.505686 272.746624,128.748331 271.832689,125.071857 L267.872305,108.834096 C267.56766,107.302232 268.17695,105.770368 269.090885,104.851249 L281.885971,94.1281999 Z" id="Path" fill="#000000"></path>
            </g>
        </g>
    </g>
</svg>