<?xml version="1.0" encoding="UTF-8"?>
<svg width="347px" height="358px" viewBox="0 0 347 358" version="1.1" xmlns="http://www.w3.org/2000/svg" xmlns:xlink="http://www.w3.org/1999/xlink">
    <!-- Generator: Sketch 55.2 (78181) - https://sketchapp.com -->
    <title>Group 3</title>
    <desc>Created with Sketch.</desc>
    <g id="Page-1" stroke="none" stroke-width="1" fill="none" fill-rule="evenodd">
        <g id="Weather-Icons" transform="translate(-65.000000, -1019.000000)" fill-rule="nonzero">
            <g id="Group-3" transform="translate(65.000000, 1019.000000)">
                <g id="Shower-Rain" transform="translate(28.000000, 235.000000)" fill="#8AD0CE">
                    <path d="M10.6048772,68.5834955 C12.8191863,69.5622057 15.1089028,70 17.3735859,70 C20.7704571,70 24.0667335,68.9698863 26.8849173,67.1154303 C29.7031009,65.2611314 32.0180045,62.5310864 33.4270964,59.1313813 C36.7989342,51.0184307 33.7542208,22.5074062 33.4020631,19.2880063 C33.3013148,18.3608567 32.7226275,17.562452 31.8922232,17.2018413 C31.0367855,16.841388 30.0805995,16.9701326 29.3759768,17.5366715 C26.8597305,19.5198721 4.74198047,37.1107173 1.37014268,45.2492913 C-2.35385284,54.2893912 1.7728279,64.7717764 10.6048772,68.5834955 Z M11.1583777,49.498962 C11.7120317,48.1854216 13.1713441,47.5673221 14.4546544,48.1080805 C15.7379647,48.6747766 16.3418391,50.1942455 15.7883387,51.4820055 C15.4108403,52.4091551 15.8385592,53.4394259 16.7193375,53.8258167 C18.0026478,54.3923556 18.6065222,55.9119817 18.0528683,57.1997416 C17.6503365,58.2040749 16.7193375,58.7707712 15.7379647,58.7707712 C15.4108403,58.7707712 15.083716,58.7192106 14.7565918,58.5646856 C11.3093462,57.0966201 9.69891179,53.0016313 11.1583777,49.498962 Z" id="Shape"></path>
                    <path d="M244.604877,59.5834955 C246.819186,60.5622057 249.108903,61 251.373586,61 C254.770457,61 258.066734,59.9698863 260.884917,58.1154303 C263.703101,56.2611314 266.018005,53.5310864 267.427096,50.1313813 C270.798934,42.0184307 267.754221,13.5074062 267.402063,10.2880063 C267.301315,9.3608567 266.722627,8.56245196 265.892223,8.20184131 C265.036785,7.84138802 264.0806,7.9701326 263.375977,8.53667152 C260.85973,10.5198721 238.74198,28.1107173 235.370143,36.2492913 C231.646147,45.2893912 235.772828,55.7717764 244.604877,59.5834955 Z M245.158378,40.498962 C245.712032,39.1854216 247.171344,38.5673221 248.454654,39.1080805 C249.737965,39.6747766 250.341839,41.1942455 249.788339,42.4820055 C249.41084,43.4091551 249.838559,44.4394259 250.719337,44.8258167 C252.002648,45.3923556 252.606522,46.9119817 252.052868,48.1997416 C251.650337,49.2040749 250.719337,49.7707712 249.737965,49.7707712 C249.41084,49.7707712 249.083716,49.7192106 248.756592,49.5646856 C245.309346,48.0966201 243.698912,44.0016313 245.158378,40.498962 Z" id="Shape-Copy-2"></path>
                    <path d="M46.2801579,97.8533911 C48.0158278,102.25544 51.3362468,105.705023 55.6125507,107.558418 C57.8009841,108.510883 60.1151596,109 62.4041561,109 C64.6177687,109 66.8313813,108.562419 68.9444308,107.6871 C73.2457602,105.885083 76.6165374,102.512803 78.4275912,98.1109118 C81.7983684,90.0019161 78.7546127,61.5047904 78.4025657,58.2869599 C78.3018491,57.3602623 77.7233438,56.5622468 76.8932007,56.2018119 C76.0380321,55.8413773 75.0821469,55.9702161 74.3777459,56.5364789 C71.862291,58.5187127 49.7514982,76.1009826 46.380721,84.2355891 C44.5696669,88.61187 44.544488,93.4514996 46.2801579,97.8533911 Z M56.1658771,88.4831881 C56.7193569,87.1702881 58.2033895,86.5524898 59.4611169,87.1187526 C60.7440235,87.6594047 61.3477081,89.1781327 60.7943817,90.4910328 C60.6182815,90.9286137 60.6182815,91.3919625 60.7943817,91.8554683 C60.9704819,92.2930493 61.2973499,92.6277162 61.7250877,92.8079335 C63.0079943,93.3741963 63.6116788,94.8930815 63.058199,96.2059813 C62.6557939,97.1840571 61.7250877,97.7762451 60.7440235,97.7762451 C60.4170021,97.7762451 60.0899806,97.6989417 59.7629594,97.5702599 C58.1028269,96.8495474 56.8199203,95.4851119 56.1406984,93.7861666 C55.4616295,92.0612962 55.4616295,90.1821334 56.1658771,88.4831881 Z" id="Shape"></path>
                    <path d="M120.402421,10.2869997 C120.301858,9.36030282 119.723354,8.56228791 118.893212,8.20185334 C118.037891,7.84141902 117.082007,7.97010048 116.37776,8.53652006 C113.862309,10.5187523 91.7513941,28.1008513 88.3807754,36.2356085 C86.5695707,40.6117289 86.544545,45.4513548 88.2802127,49.8533999 C90.0157266,54.2810557 93.3361407,57.7306366 97.6124385,59.5840301 C99.8008688,60.5364945 102.090015,61 104.404188,61 C106.617797,61 108.831407,60.5622624 110.919274,59.687101 C115.245777,57.9108537 118.616549,54.5128083 120.4276,50.1365309 C123.798372,42.0019313 120.754621,13.5048277 120.402421,10.2869997 Z M105.05823,48.2058344 C104.655671,49.1840667 103.724967,49.7760968 102.744057,49.7760968 C102.417036,49.7760968 102.090015,49.6989506 101.762995,49.5702689 C100.102711,48.8494 98.7947806,47.5107333 98.1155597,45.7860215 C97.4363388,44.0613098 97.4615177,42.1821484 98.1659178,40.4830472 C98.7192434,39.1701482 100.178248,38.5523504 101.461153,39.1187698 C102.744058,39.6592642 103.347741,41.1781483 102.794262,42.4910473 C102.618162,42.9286279 102.618162,43.4177442 102.794262,43.8553248 C102.970362,44.2929053 103.297383,44.6533399 103.724967,44.8335571 C105.007871,45.3742086 105.611555,46.8929353 105.05823,48.2058344 Z" id="Shape"></path>
                    <path d="M55.6269733,51.5834944 C57.8409043,52.5364249 60.1303836,53 62.3945263,53 C65.790971,53 69.0866849,51.9698855 71.9043873,50.1154282 C74.6969071,48.261128 77.0114155,45.5310811 78.4202666,42.1313735 C81.7915287,33.9927939 78.7725176,5.50752915 78.4202666,2.28812692 C78.3196892,1.36081957 77.7159176,0.562414252 76.8856551,0.201960449 C76.0553925,-0.158650204 75.0993699,-0.029905794 74.3698384,0.536633537 C71.8540216,2.51983554 49.765077,20.1106934 46.3939687,28.2492732 C44.5825009,32.6276917 44.5322889,37.4696853 46.2682085,41.8738842 C48.0291577,46.2779257 51.3500542,49.7291942 55.6269733,51.5834944 Z M56.1805327,32.4731666 C56.7087559,31.1854057 58.1931554,30.5673057 59.4762466,31.1082216 C60.7593378,31.674761 61.3379263,33.1943881 60.8095497,34.5077721 C60.4322693,35.409299 60.8347325,36.4394134 61.7403896,36.8258046 C62.9982979,37.3923439 63.6020693,38.8861906 63.0738462,40.1997319 C62.6462003,41.1784428 61.7152068,41.7707626 60.734155,41.7707626 C60.4070865,41.7707626 60.080018,41.7193591 59.7529497,41.5648339 C56.3314757,40.0709875 54.721316,36.001619 56.1805327,32.4731666 Z" id="Shape"></path>
                </g>
                <g id="Shower-Rain-Copy" transform="translate(129.000000, 235.000000)" fill="#8AD0CE">
                    <path d="M55.6048772,68.5834955 C57.8191863,69.5622057 60.1089028,70 62.3735859,70 C65.7704571,70 69.0667335,68.9698863 71.8849173,67.1154303 C74.7031009,65.2611314 77.0180045,62.5310864 78.4270964,59.1313813 C81.7989342,51.0184307 78.7542208,22.5074062 78.4020631,19.2880063 C78.3013148,18.3608567 77.7226275,17.562452 76.8922232,17.2018413 C76.0367855,16.841388 75.0805995,16.9701326 74.3759768,17.5366715 C71.8597305,19.5198721 49.7419805,37.1107173 46.3701427,45.2492913 C42.6461472,54.2893912 46.7728279,64.7717764 55.6048772,68.5834955 Z M56.1583777,49.498962 C56.7120317,48.1854216 58.1713441,47.5673221 59.4546544,48.1080805 C60.7379647,48.6747766 61.3418391,50.1942455 60.7883387,51.4820055 C60.4108403,52.4091551 60.8385592,53.4394259 61.7193375,53.8258167 C63.0026478,54.3923556 63.6065222,55.9119817 63.0528683,57.1997416 C62.6503365,58.2040749 61.7193375,58.7707712 60.7379647,58.7707712 C60.4108403,58.7707712 60.083716,58.7192106 59.7565918,58.5646856 C56.3093462,57.0966201 54.6989118,53.0016313 56.1583777,49.498962 Z" id="Shape"></path>
                    <path d="M91.2801579,97.8533911 C93.0158278,102.25544 96.3362468,105.705023 100.612551,107.558418 C102.800984,108.510883 105.11516,109 107.404156,109 C109.617769,109 111.831381,108.562419 113.944431,107.6871 C118.24576,105.885083 121.616537,102.512803 123.427591,98.1109118 C126.798368,90.0019161 123.754613,61.5047904 123.402566,58.2869599 C123.301849,57.3602623 122.723344,56.5622468 121.893201,56.2018119 C121.038032,55.8413773 120.082147,55.9702161 119.377746,56.5364789 C116.862291,58.5187127 94.7514982,76.1009826 91.380721,84.2355891 C89.5696669,88.61187 89.544488,93.4514996 91.2801579,97.8533911 Z M101.165877,88.4831881 C101.719357,87.1702881 103.203389,86.5524898 104.461117,87.1187526 C105.744024,87.6594047 106.347708,89.1781327 105.794382,90.4910328 C105.618281,90.9286137 105.618281,91.3919625 105.794382,91.8554683 C105.970482,92.2930493 106.29735,92.6277162 106.725088,92.8079335 C108.007994,93.3741963 108.611679,94.8930815 108.058199,96.2059813 C107.655794,97.1840571 106.725088,97.7762451 105.744024,97.7762451 C105.417002,97.7762451 105.089981,97.6989417 104.762959,97.5702599 C103.102827,96.8495474 101.81992,95.4851119 101.140698,93.7861666 C100.461629,92.0612962 100.461629,90.1821334 101.165877,88.4831881 Z" id="Shape"></path>
                    <path d="M1.28015787,111.853391 C3.01582776,116.25544 6.33624678,119.705023 10.6125507,121.558418 C12.8009841,122.510883 15.1151596,123 17.4041561,123 C19.6177687,123 21.8313813,122.562419 23.9444308,121.6871 C28.2457602,119.885083 31.6165374,116.512803 33.4275912,112.110912 C36.7983684,104.001916 33.7546127,75.5047904 33.4025657,72.2869599 C33.3018491,71.3602623 32.7233438,70.5622468 31.8932007,70.2018119 C31.0380321,69.8413773 30.0821469,69.9702161 29.3777459,70.5364789 C26.862291,72.5187127 4.75149815,90.1009826 1.38072098,98.2355891 C-0.430333069,102.61187 -0.455512017,107.4515 1.28015787,111.853391 Z M11.1658771,102.483188 C11.7193569,101.170288 13.2033895,100.55249 14.4611169,101.118753 C15.7440235,101.659405 16.3477081,103.178133 15.7943817,104.491033 C15.6182815,104.928614 15.6182815,105.391963 15.7943817,105.855468 C15.9704819,106.293049 16.2973499,106.627716 16.7250877,106.807934 C18.0079943,107.374196 18.6116788,108.893082 18.058199,110.205981 C17.6557939,111.184057 16.7250877,111.776245 15.7440235,111.776245 C15.4170021,111.776245 15.0899806,111.698942 14.7629594,111.57026 C13.1028269,110.849547 11.8199203,109.485112 11.1406984,107.786167 C10.4616295,106.061296 10.4616295,104.182133 11.1658771,102.483188 Z" id="Shape-Copy"></path>
                    <path d="M100.626973,51.5834944 C102.840904,52.5364249 105.130384,53 107.394526,53 C110.790971,53 114.086685,51.9698855 116.904387,50.1154282 C119.696907,48.261128 122.011415,45.5310811 123.420267,42.1313735 C126.791529,33.9927939 123.772518,5.50752915 123.420267,2.28812692 C123.319689,1.36081957 122.715918,0.562414252 121.885655,0.201960449 C121.055393,-0.158650204 120.09937,-0.029905794 119.369838,0.536633537 C116.854022,2.51983554 94.765077,20.1106934 91.3939687,28.2492732 C89.5825009,32.6276917 89.5322889,37.4696853 91.2682085,41.8738842 C93.0291577,46.2779257 96.3500542,49.7291942 100.626973,51.5834944 Z M101.180533,32.4731666 C101.708756,31.1854057 103.193155,30.5673057 104.476247,31.1082216 C105.759338,31.674761 106.337926,33.1943881 105.80955,34.5077721 C105.432269,35.409299 105.834733,36.4394134 106.74039,36.8258046 C107.998298,37.3923439 108.602069,38.8861906 108.073846,40.1997319 C107.6462,41.1784428 106.715207,41.7707626 105.734155,41.7707626 C105.407086,41.7707626 105.080018,41.7193591 104.75295,41.5648339 C101.331476,40.0709875 99.721316,36.001619 101.180533,32.4731666 Z" id="Shape"></path>
                </g>
                <path d="M249.939961,181.010999 C249.939961,183.290581 249.789462,185.570163 249.488464,187.849745 C249.608863,187.039894 249.699162,186.260037 249.819562,185.450185 C249.217566,189.859377 248.043674,194.118596 246.358085,198.257837 C246.659083,197.537969 246.960081,196.818101 247.261079,196.098233 C245.996888,199.097683 244.461798,201.977155 242.65581,204.67666 C242.234413,205.306545 241.782916,205.936429 241.331419,206.566314 C240.940122,207.106215 239.826429,208.186017 241.632417,206.20638 C241.361519,206.47633 241.15082,206.80627 240.910022,207.106215 C239.886629,208.335989 238.803036,209.535769 237.659244,210.67556 C236.575651,211.755362 235.431859,212.80517 234.257967,213.794988 C234.197767,213.824983 233.204474,214.694823 233.174374,214.664829 C233.174374,214.664829 235.160961,213.165104 233.716171,214.244906 C233.084075,214.694823 232.451979,215.144741 231.819884,215.564664 C229.050702,217.424323 226.100922,218.984037 223.000643,220.303795 C223.723038,220.00385 224.445433,219.703905 225.167829,219.40396 C221.044156,221.083652 216.739886,222.253437 212.315216,222.853327 C213.12791,222.733349 213.910505,222.643366 214.723199,222.523388 C208.131344,223.363234 201.238491,222.973305 194.616535,222.973305 C182.576617,222.973305 170.536698,222.973305 158.46668,222.973305 C143.68768,222.973305 128.90868,222.973305 114.12968,222.973305 C101.547965,222.973305 88.9361508,222.973305 76.354436,222.973305 C70.9966722,222.973305 65.6389085,223.0033 60.2811448,222.973305 C57.9032609,222.973305 55.5554768,222.793338 53.2076927,222.493393 C54.0203872,222.613371 54.8029819,222.703355 55.6156764,222.823333 C51.1910063,222.193448 46.8867355,221.023663 42.7630634,219.313976 C43.4854585,219.613921 44.2078536,219.913866 44.9302487,220.213811 C41.9503689,218.954042 39.0908882,217.424323 36.4120064,215.624653 C35.6896113,215.144741 35.0274157,214.664829 34.3351204,214.154922 C33.1311286,213.285082 36.1411082,215.594658 34.9070166,214.60484 C34.6060186,214.364884 34.3050206,214.124928 34.0040227,213.854977 C32.8000308,212.865159 31.6261388,211.785357 30.5124463,210.67556 C29.3987538,209.565764 28.345261,208.395978 27.3218679,207.196198 C27.0810695,206.896253 26.8402712,206.596308 26.569373,206.296363 C25.5459799,205.066589 27.9539636,208.186017 27.0208699,206.866259 C26.569373,206.236374 26.0877763,205.60649 25.6663791,204.946611 C23.8302915,202.217111 22.2350023,199.307645 20.9407111,196.2782 C21.2417091,196.998068 21.542707,197.717936 21.843705,198.437804 C20.1280166,194.328557 18.9240248,190.039344 18.3220288,185.630152 C18.442428,186.440004 18.5327274,187.219861 18.6531266,188.029712 C18.0210309,183.410559 18.0210309,178.761412 18.6230268,174.142259 C18.5026276,174.95211 18.4123282,175.731967 18.291929,176.541819 C18.893925,172.132627 20.067817,167.843414 21.7534056,163.734167 C21.4524076,164.454035 21.1514097,165.173903 20.8504117,165.893771 C22.0243038,163.104283 23.4389942,160.434772 25.094483,157.88524 C25.4857803,157.315344 25.8469779,156.715454 26.268375,156.175553 C26.5392732,155.785625 26.8101714,155.425691 27.0810695,155.065757 C27.8636642,153.985955 26.5091734,155.785625 26.5091734,155.785625 C26.3887742,155.665647 29.2482549,152.606208 29.5492528,152.306263 C30.6328455,151.166472 31.7465379,150.08667 32.92043,149.066857 C33.5525257,148.496961 34.2147212,147.987054 34.8769168,147.447153 C35.6896113,146.75728 32.9806296,148.8269 34.4555196,147.777093 C34.7264178,147.567131 34.9973159,147.387164 35.2682141,147.177203 C38.0373954,145.197566 41.0172752,143.547868 44.1175542,142.168121 C46.8867355,140.908352 48.6325236,137.279018 48.6024238,134.399546 C48.5422242,131.100151 48.7529228,127.83075 49.17432,124.56135 C49.0539208,125.371201 48.9636214,126.151058 48.8432222,126.96091 C49.6258169,121.351938 51.1308067,115.892939 53.3280918,110.673896 C53.0270939,111.393764 52.7260959,112.113632 52.425098,112.8335 C54.0203872,109.084188 55.9768739,105.484848 58.2644584,102.065474 C58.8363546,101.195634 59.4684503,100.325793 60.0704462,99.4859475 C61.3948372,97.7162719 58.9266539,100.925683 59.8597476,99.755898 C60.1908454,99.335975 60.5219431,98.9460465 60.8530409,98.5261235 C62.1172323,97.0263984 63.4416234,95.5866624 64.826214,94.1769209 C66.2108046,92.7971739 67.6555949,91.4774159 69.1906845,90.2176469 C69.5819818,89.8877074 70.003379,89.5577679 70.4247761,89.2278283 C71.5986682,88.2979988 68.37799,90.7575479 70.1538779,89.4377899 C70.9966722,88.8079053 71.8695663,88.2080153 72.7424604,87.6381198 C76.1437374,85.3585378 79.7557129,83.4388898 83.5482873,81.8191868 C82.8258922,82.1191318 82.103497,82.4190768 81.3811019,82.7190218 C86.6184665,80.5294233 92.0966294,79.0296982 97.7252913,78.2498412 C96.9125968,78.3698192 96.1300021,78.4598027 95.3173076,78.5797807 C101.066369,77.8299182 106.84553,77.7999237 112.594591,78.5497862 C111.781896,78.4298082 110.999301,78.3398247 110.186607,78.2198467 C115.815269,78.9697092 121.293432,80.4694343 126.560896,82.6290383 C125.838501,82.3290933 125.116106,82.0291483 124.393711,81.7292033 C128.065886,83.2889173 131.587562,85.1485763 134.928639,87.3081803 C135.741334,87.8480813 136.584128,88.4179768 137.366723,88.9878723 C137.697821,89.2278283 138.059018,89.4977789 138.390116,89.7377349 C139.624208,90.6375699 136.463729,88.2080153 138.239617,89.6177569 C139.714507,90.8175369 141.159297,92.0773059 142.513788,93.3970639 C143.868279,94.7168219 145.19267,96.0965689 146.426762,97.5363049 C147.088957,98.2861674 147.690953,99.03603 148.323049,99.815887 C149.346442,101.075656 146.878259,97.9262334 148.08225,99.515942 C148.383248,99.9058705 148.654147,100.295799 148.955144,100.715722 C151.242729,103.955128 153.229316,107.404496 154.914904,111.003836 C155.787798,112.863495 158.346281,114.693159 160.302768,115.143077 C162.650552,115.682978 165.148835,115.503011 167.255821,114.243242 C168.670511,113.373401 170.145401,112.623539 171.650391,111.96366 C170.927996,112.263605 170.205601,112.56355 169.483206,112.863495 C172.131988,111.753698 174.901169,111.003836 177.73055,110.553918 C176.917855,110.673896 176.13526,110.76388 175.322566,110.883858 C178.302446,110.493929 181.282326,110.463935 184.232106,110.823869 C183.419411,110.703891 182.636816,110.613907 181.824122,110.493929 C184.834102,110.883858 187.723682,111.693709 190.522963,112.863495 C189.800568,112.56355 189.078173,112.263605 188.355778,111.96366 C190.191865,112.773511 191.967753,113.703341 193.653342,114.813137 C194.104839,115.113082 194.526236,115.413027 194.977733,115.742967 C196.211825,116.612807 193.021246,114.153258 194.706835,115.563 C195.45933,116.192884 196.211825,116.882758 196.90412,117.572631 C197.596415,118.262505 198.288711,119.012367 198.920806,119.76223 C200.335497,121.471916 197.867313,118.292499 198.740207,119.522274 C199.011106,119.912202 199.282004,120.272136 199.552902,120.662065 C200.726794,122.371751 201.689987,124.201416 202.532782,126.121064 C202.231784,125.401196 201.930786,124.681328 201.629788,123.96146 C202.74348,126.63097 203.526075,129.36047 203.917372,132.209947 C203.796973,131.400096 203.706674,130.620239 203.586275,129.810387 C203.616374,129.96036 203.616374,130.080338 203.646474,130.23031 C203.977572,132.599876 204.398969,134.879458 206.295256,136.589144 C208.161444,138.298831 210.17813,138.988704 212.676413,139.22866 C213.368708,139.288649 214.061004,139.378633 214.753299,139.468616 C213.940605,139.348638 213.15801,139.258655 212.345315,139.138677 C216.830185,139.768561 221.194655,140.938347 225.378527,142.678028 C224.656132,142.378083 223.933737,142.078138 223.211342,141.778193 C226.161122,143.037962 229.020602,144.537687 231.669385,146.337357 C232.33158,146.787274 232.993776,147.237192 233.625871,147.717104 C233.83657,147.867076 234.047268,148.047043 234.257967,148.197016 C233.86667,147.897071 233.445273,147.597126 233.053975,147.267186 C233.354973,147.35717 233.74627,147.807087 233.987069,148.017049 C235.28136,149.066857 236.485352,150.176653 237.659244,151.346439 C238.772936,152.456235 239.856529,153.656015 240.879922,154.855795 C241.120721,155.15574 241.391619,155.48568 241.632417,155.785625 C242.234413,156.535487 240.127427,153.745999 241.18092,155.215729 C241.632417,155.875608 242.114014,156.505493 242.565511,157.165372 C244.401598,159.894871 245.936688,162.774343 247.230979,165.773793 C246.929981,165.053925 246.628983,164.334057 246.327985,163.614189 C248.073773,167.783425 249.247666,172.132627 249.849661,176.601808 C249.729262,175.791956 249.638963,175.012099 249.518564,174.202248 C249.789462,176.511824 249.909861,178.761412 249.939961,181.010999 C249.970061,185.720136 254.093733,190.219311 258.9699,190.009349 C263.846067,189.799388 268.029938,186.050075 268,181.010999 C267.909539,158.095201 254.244232,135.929265 233.023875,126.570981 C226.40192,123.661515 219.840165,121.951828 212.616214,121.23196 C215.626193,124.23141 218.636173,127.23086 221.646152,130.23031 C220.893657,124.56135 219.509067,119.372301 216.739886,114.303231 C214.482401,110.104001 211.352022,106.174721 207.709947,103.085287 C199.613102,96.1865524 189.288871,92.1672894 178.573344,92.5872124 C171.319293,92.8571629 164.215741,94.9267834 157.985083,98.676096 C162.108755,99.755898 166.232428,100.8357 170.326,101.915502 C158.827878,77.2000337 133.33335,60.973009 106.183334,60.0431795 C80.4781081,59.1433445 55.9166743,72.3709192 41.9804687,93.7869924 C34.2147212,105.724804 30.1512487,120.182153 30.3920471,134.399546 C31.8970369,131.820019 33.3719269,129.210497 34.8769168,126.63097 C14.4090553,135.809287 1.01464599,156.625471 0.0514525128,178.791406 C-0.731142189,196.998068 7.45600239,215.624653 21.7233058,227.112546 C29.0074565,232.961474 37.3150003,237.40066 46.4954381,239.440286 C51.2512059,240.520088 56.1574727,241 61.0336397,241 C66.301104,241 71.5986682,241 76.8661325,241 C86.7689655,241 96.7018982,241 106.604731,241 C118.58445,241 130.564169,241 142.543888,241 C153.891511,241 165.239134,241 176.616857,241 C184.683603,241 192.780448,241 200.847193,241 C207.920645,241 214.813499,240.970005 221.796651,239.350302 C242.836409,234.491193 260.083592,217.724268 265.832653,197.028063 C267.277443,191.839014 267.969739,186.380015 268,181.010999 C268.029938,176.301863 263.815967,171.802688 258.9699,172.012649 C254.063633,172.222611 249.970061,175.971923 249.939961,181.010999 Z" id="Cloud-Copy-3" fill="#000000"></path>
                <path d="M113.61807,70 C113.55787,66.700605 127.370992,67.8307503 127.792389,64.5613497 C127.67199,65.3712012 127.581691,66.1510583 127.461292,66.9609098 C128.243886,61.3519382 129.748876,55.8929391 131.946161,50.6738961 C131.645163,51.3937641 131.344165,52.1136321 131.043167,52.8335001 C132.638457,49.0841876 134.594943,45.4848475 136.882528,42.0654745 C137.454424,41.195634 138.08652,40.3257935 138.688516,39.4859475 C140.012907,37.7162719 137.544723,40.9256835 138.477817,39.755898 C138.808915,39.335975 139.140013,38.9460465 139.47111,38.5261235 C140.735302,37.0263984 142.059693,35.5866624 143.444284,34.1769209 C144.828874,32.7971739 146.273664,31.4774159 147.808754,30.2176469 C148.200051,29.8877074 148.621448,29.5577679 149.042846,29.2278283 C150.216738,28.2979988 146.996059,30.7575479 148.771947,29.4377899 C149.614742,28.8079053 150.487636,28.2080153 151.36053,27.6381198 C154.761807,25.3585378 158.373782,23.4388898 162.166357,21.8191868 C161.443962,22.1191318 160.721567,22.4190768 159.999171,22.7190218 C165.236536,20.5294233 170.714699,19.0296982 176.343361,18.2498412 C175.530666,18.3698192 174.748072,18.4598027 173.935377,18.5797807 C179.684438,17.8299182 185.463599,17.7999237 191.21266,18.5497862 C190.399966,18.4298082 189.617371,18.3398247 188.804676,18.2198467 C194.433338,18.9697092 199.911501,20.4694343 205.178966,22.6290383 C204.456571,22.3290933 203.734175,22.0291483 203.01178,21.7292033 C206.683955,23.2889173 210.205632,25.1485763 213.546709,27.3081803 C214.359403,27.8480813 215.202198,28.4179768 215.984792,28.9878723 C216.31589,29.2278283 216.677088,29.4977789 217.008186,29.7377349 C218.242277,30.6375699 215.081799,28.2080153 216.857687,29.6177569 C218.332577,30.8175369 219.777367,32.0773059 221.131858,33.3970639 C222.486348,34.7168219 223.810739,36.0965689 225.044831,37.5363049 C225.707027,38.2861674 226.309023,39.03603 226.941118,39.815887 C227.964511,41.075656 225.496328,37.9262334 226.70032,39.515942 C227.001318,39.9058705 227.272216,40.295799 227.573214,40.715722 C229.860799,43.955128 231.847385,47.4044955 233.532974,51.0038356 C234.405868,52.8634946 236.96435,54.6931591 238.920837,55.1430766 C241.268621,55.6829776 243.766904,55.5030106 245.87389,54.2432416 C247.288581,53.3734011 248.763471,52.6235386 250.26846,51.9636596 C249.546065,52.2636046 248.82367,52.5635496 248.101275,52.8634946 C250.750057,51.7536981 253.519238,51.0038356 256.348619,50.5539181 C255.535925,50.6738961 254.75333,50.7638796 253.940636,50.8838576 C256.920515,50.4939291 259.900395,50.4639346 262.850175,50.8238686 C262.037481,50.7038906 261.254886,50.6139071 260.442191,50.4939291 C263.452171,50.8838576 266.341752,51.6937091 269.141033,52.8634946 C268.418637,52.5635496 267.696242,52.2636046 266.973847,51.9636596 C268.809935,52.7735111 270.585823,53.7033406 272.271411,54.8131371 C272.722908,55.1130821 273.144306,55.4130271 273.595802,55.7429666 C274.829894,56.6128071 271.639316,54.1532581 273.324904,55.5629996 C274.077399,56.1928841 274.829894,56.8827577 275.522189,57.5726312 C276.214485,58.2625047 276.90678,59.0123672 277.538876,59.7622297 C278.953566,61.4719162 276.485383,58.2924992 277.358277,59.5222737 C277.629175,59.9122022 277.900073,60.2721362 278.170971,60.6620647 C279.344864,62.3717512 280.308057,64.2014157 281.150851,66.1210638 C280.849853,65.4011957 280.548855,64.6813277 280.247857,63.9614597 C281.36155,66.6309703 282.144145,69.3604698 282.535442,72.2099473 C282.415043,71.4000958 282.324743,70.6202388 282.204344,69.8103873 C282.234444,69.9603598 282.234444,70.0803378 282.264544,70.2303103 C282.595642,72.5998758 283.017039,74.8794578 284.913326,76.5891444 C286.779513,78.2988309 288.7962,78.9887044 291.294483,79.2286604 C291.986778,79.2886494 292.679073,79.3786329 293.371369,79.4686164 C292.558674,79.3486384 291.776079,79.2586549 290.963385,79.1386769 C295.448255,79.7685614 299.812725,80.9383469 303.996597,82.6780279 C303.274202,82.3780829 302.551806,82.0781379 301.829411,81.7781929 C304.779191,83.0379619 307.638672,84.537687 310.287454,86.337357 C310.94965,86.7872745 311.611845,87.237192 312.243941,87.717104 C312.454639,87.8670765 312.665338,88.0470435 312.876037,88.197016 C312.484739,87.897071 312.063342,87.597126 311.672045,87.2671865 C311.973043,87.35717 312.36434,87.8070875 312.605138,88.017049 C313.89943,89.0668565 315.103421,90.176653 316.277314,91.3464385 C317.391006,92.456235 318.474599,93.6560151 319.497992,94.8557951 C319.73879,95.1557401 320.009688,95.4856796 320.250487,95.7856246 C320.852483,96.5354871 318.745497,93.7459986 319.79899,95.2157291 C320.250487,95.8756081 320.732083,96.5054926 321.18358,97.1653716 C323.019668,99.8948711 324.554757,102.774343 325.849049,105.773793 C325.548051,105.053925 325.247053,104.334057 324.946055,103.614189 C326.691843,107.783425 327.865735,112.132627 328.467731,116.601808 C328.347332,115.791956 328.257032,115.012099 328.136633,114.202248 C328.407531,116.511824 328.527931,118.761412 328.55803,121.010999 C328.58813,125.720136 332.711802,130.219311 337.587969,130.009349 C342.464136,129.799388 346.648008,126.050075 346.618387,121.010999 C346.527609,98.0952011 332.862301,75.9292654 311.641945,66.5709813 C305.01999,63.6615147 298.458234,61.9518282 291.234283,61.2319602 C294.244263,64.2314102 297.254242,67.2308603 300.264222,70.2303103 C299.511727,64.5613497 298.127136,59.3723012 295.357955,54.3032306 C293.10047,50.1040006 289.970092,46.174721 286.328016,43.0852875 C278.231171,36.1865524 267.906941,32.1672894 257.191414,32.5872124 C249.937363,32.8571629 242.833811,34.9267834 236.603153,38.676096 C240.726825,39.755898 244.850497,40.8357 248.944069,41.915502 C237.445947,17.2000337 211.95142,0.973009042 184.801404,0.0431795318 C159.096178,-0.856655478 134.534744,12.3709192 120.598538,33.7869924 C112.832791,45.7248035 108.769318,60.1821527 109.010117,74.3995458 C110.515106,71.8200188 111.989996,69.2104973 113.494986,66.6309703 C104.539109,70.6470165 134.4488,82.9216471 170.61807,101 C178.672745,105.025939 190.78016,103.70676 198.61807,109 C199.87259,109.847226 204.386576,111.10702 205.61807,112 C224.372739,125.599383 243.332176,138.579895 253.61807,153 C262.793858,165.863815 264.279338,181 264.96719,181 C269.80206,181 274.639048,181 279.465263,181 C286.538715,181 293.431568,180.970005 300.414721,179.350302 C321.454478,174.491193 338.701662,157.724268 344.450723,137.028063 C345.895513,131.839014 346.587808,126.380015 346.618387,121.010999 C346.648008,116.301863 342.434036,111.802688 337.587969,112.012649 C332.681702,112.222611 328.58813,115.971923 328.55803,121.010999 C328.55803,123.290581 328.407531,125.570163 328.106533,127.849745 C328.226933,127.039894 328.317232,126.260037 328.437631,125.450185 C327.835635,129.859377 326.661743,134.118596 324.976155,138.257837 C325.277153,137.537969 325.578151,136.818101 325.879149,136.098233 C324.614957,139.097683 323.079867,141.977155 321.27388,144.67666 C320.852483,145.306545 320.400986,145.936429 319.949489,146.566314 C319.558191,147.106215 318.444499,148.186017 320.250487,146.20638 C319.979588,146.47633 319.76889,146.80627 319.528092,147.106215 C318.504698,148.335989 317.421106,149.535769 316.277314,150.67556 C315.193721,151.755362 314.049929,152.80517 312.876037,153.794988 C312.815837,153.824983 311.822544,154.694823 311.792444,154.664829 C311.792444,154.664829 313.77903,153.165104 312.33424,154.244906 C311.702144,154.694823 311.070049,155.144741 310.437953,155.564664 C307.668772,157.424323 304.718992,158.984037 301.618713,160.303795 C302.341108,160.00385 303.063503,159.703905 303.785898,159.40396 C299.662226,161.083652 295.357955,162.253437 290.933285,162.853327 C291.74598,162.733349 292.528574,162.643366 293.341269,162.523388 C286.749413,163.363234 279.85656,162.973305 273.234605,162.973305 C269.790517,162.973305 266.34643,162.973305 262.901638,162.973305 C255.225362,162.973305 203,112 199,112" id="Path" fill="#000000"></path>
            </g>
        </g>
    </g>
</svg>