<?xml version="1.0" encoding="UTF-8"?>
<svg width="208px" height="241px" viewBox="0 0 208 241" version="1.1" xmlns="http://www.w3.org/2000/svg" xmlns:xlink="http://www.w3.org/1999/xlink">
    <!-- Generator: Sketch 55.2 (78181) - https://sketchapp.com -->
    <title>Snow</title>
    <desc>Created with Sketch.</desc>
    <g id="Page-1" stroke="none" stroke-width="1" fill="none" fill-rule="evenodd">
        <g id="Weather-Icons" transform="translate(-1256.000000, -239.000000)" fill="#8AD0CE" fill-rule="nonzero">
            <path d="M1459.94507,408.461053 L1437.95716,395.523158 L1456.447,387.405263 C1460.4448,385.629474 1462.4437,380.809474 1460.69466,376.750526 C1458.94562,372.691579 1454.19823,370.662105 1450.20043,372.437895 L1420.46677,385.375789 L1376.24107,359.5 L1420.21691,333.624211 L1449.95057,346.562105 C1450.95002,347.069474 1451.94947,347.323158 1453.19878,347.323158 C1456.447,347.323158 1459.44535,345.547368 1460.69466,342.249474 C1462.4437,338.190526 1460.4448,333.370526 1456.447,331.594737 L1437.95716,323.476842 L1459.94507,310.538947 C1463.69301,308.255789 1465.19219,303.182105 1462.94343,299.376842 C1460.69466,295.571579 1455.69741,294.049474 1451.94947,296.332632 L1429.96155,309.270526 L1432.46018,288.975789 C1432.9599,284.409474 1429.96155,280.350526 1425.46402,279.843158 C1420.96649,279.335789 1416.96869,282.38 1416.46897,286.946316 L1412.47116,319.417895 L1367.99561,345.293684 L1367.99561,293.542105 L1393.73146,273.754737 C1397.22954,270.964211 1397.97913,265.890526 1395.23064,262.338947 C1392.48215,258.787368 1387.4849,258.026316 1383.98682,260.816842 L1367.99561,272.993684 L1367.99561,247.117895 C1367.99561,242.551579 1364.49753,239 1360,239 C1355.50247,239 1352.00439,242.551579 1352.00439,247.117895 L1352.00439,272.993684 L1336.01318,260.816842 C1332.5151,258.026316 1327.26799,258.787368 1324.76936,262.338947 C1322.02087,265.890526 1322.77046,271.217895 1326.26854,273.754737 L1352.00439,293.542105 L1352.00439,345.04 L1307.7787,319.417895 L1303.7809,286.946316 C1303.28117,282.38 1299.28337,279.082105 1294.78584,279.843158 C1290.28831,280.350526 1287.28996,284.409474 1287.78968,288.975789 L1290.28831,309.270526 L1268.3004,296.332632 C1264.55245,294.049474 1259.5552,295.317895 1257.30644,299.376842 C1255.05767,303.182105 1256.30699,308.255789 1260.05493,310.538947 L1282.04284,323.476842 L1263.553,331.594737 C1259.5552,333.370526 1257.5563,338.190526 1259.30534,342.249474 C1260.55465,345.293684 1263.553,347.323158 1266.80122,347.323158 C1267.80067,347.323158 1269.04998,347.069474 1270.04943,346.562105 L1299.78309,333.624211 L1343.75893,359.5 L1299.78309,385.375789 L1270.04943,372.437895 C1266.05163,370.662105 1261.30424,372.691579 1259.5552,376.750526 C1257.80616,380.809474 1259.80506,385.629474 1263.80287,387.405263 L1282.29271,395.523158 L1260.05493,408.461053 C1256.30699,410.744211 1254.80781,415.817895 1257.05657,419.623158 C1258.55575,422.16 1261.30424,423.682105 1264.05273,423.682105 C1265.55191,423.682105 1266.80122,423.428421 1268.05053,422.667368 L1290.03845,409.729474 L1287.53982,430.024211 C1287.0401,434.590526 1290.03845,438.649474 1294.53598,439.156842 C1294.78584,439.156842 1295.28556,439.156842 1295.53543,439.156842 C1299.53323,439.156842 1303.03131,436.112632 1303.53103,432.053684 L1307.52884,399.582105 L1351.50467,373.706316 L1351.50467,425.457895 L1325.76881,445.245263 C1322.27073,448.035789 1321.52115,453.109474 1324.26964,456.661053 C1327.01813,460.212632 1332.01538,460.973684 1335.51346,458.183158 L1351.50467,446.006316 L1351.50467,471.882105 C1351.50467,476.448421 1355.00275,480 1359.50027,480 C1363.9978,480 1367.49588,476.448421 1367.49588,471.882105 L1367.49588,446.006316 L1383.48709,458.183158 C1384.98627,459.197895 1386.73531,459.958947 1388.23448,459.958947 C1390.73311,459.958947 1393.23174,458.944211 1394.73091,456.661053 C1397.4794,453.109474 1396.72981,447.782105 1393.23174,445.245263 L1367.99561,425.457895 L1367.99561,373.706316 L1411.97144,399.582105 L1415.96924,432.053684 C1416.46897,436.112632 1419.96704,439.156842 1423.96485,439.156842 C1424.21471,439.156842 1424.71444,439.156842 1424.9643,439.156842 C1429.46183,438.649474 1432.46018,434.590526 1431.96045,430.024211 L1429.46183,409.729474 L1451.44974,422.667368 C1452.69906,423.428421 1454.19823,423.682105 1455.44755,423.682105 C1458.19603,423.682105 1460.94452,422.16 1462.4437,419.623158 C1464.94233,415.817895 1463.69301,410.744211 1459.94507,408.461053 Z" id="Snow"></path>
        </g>
    </g>
</svg>