<?xml version="1.0" encoding="UTF-8"?>
<svg width="268px" height="181px" viewBox="0 0 268 181" version="1.1" xmlns="http://www.w3.org/2000/svg" xmlns:xlink="http://www.w3.org/1999/xlink">
    <!-- Generator: Sketch 55.2 (78181) - https://sketchapp.com -->
    <title>Cloud</title>
    <desc>Created with Sketch.</desc>
    <g id="Page-1" stroke="none" stroke-width="1" fill="none" fill-rule="evenodd">
        <g id="Weather-Icons" transform="translate(-901.000000, -1285.000000)" fill="#000000" fill-rule="nonzero">
            <path d="M1150.93996,1406.011 C1150.93996,1408.29058 1150.78946,1410.57016 1150.48846,1412.84975 C1150.60886,1412.03989 1150.69916,1411.26004 1150.81956,1410.45019 C1150.21757,1414.85938 1149.04367,1419.1186 1147.35809,1423.25784 C1147.65908,1422.53797 1147.96008,1421.8181 1148.26108,1421.09823 C1146.99689,1424.09768 1145.4618,1426.97716 1143.65581,1429.67666 C1143.23441,1430.30654 1142.78292,1430.93643 1142.33142,1431.56631 C1141.94012,1432.10621 1140.82643,1433.18602 1142.63242,1431.20638 C1142.36152,1431.47633 1142.15082,1431.80627 1141.91002,1432.10621 C1140.88663,1433.33599 1139.80304,1434.53577 1138.65924,1435.67556 C1137.57565,1436.75536 1136.43186,1437.80517 1135.25797,1438.79499 C1135.19777,1438.82498 1134.20447,1439.69482 1134.17437,1439.66483 C1134.17437,1439.66483 1136.16096,1438.1651 1134.71617,1439.24491 C1134.08407,1439.69482 1133.45198,1440.14474 1132.81988,1440.56466 C1130.0507,1442.42432 1127.10092,1443.98404 1124.00064,1445.30379 C1124.72304,1445.00385 1125.44543,1444.7039 1126.16783,1444.40396 C1122.04416,1446.08365 1117.73989,1447.25344 1113.31522,1447.85333 C1114.12791,1447.73335 1114.9105,1447.64337 1115.7232,1447.52339 C1109.13134,1448.36323 1102.23849,1447.97331 1095.61654,1447.97331 C1083.57662,1447.97331 1071.5367,1447.97331 1059.46668,1447.97331 C1044.68768,1447.97331 1029.90868,1447.97331 1015.12968,1447.97331 C1002.54797,1447.97331 989.936151,1447.97331 977.354436,1447.97331 C971.996672,1447.97331 966.638909,1448.0033 961.281145,1447.97331 C958.903261,1447.97331 956.555477,1447.79334 954.207693,1447.49339 C955.020387,1447.61337 955.802982,1447.70335 956.615676,1447.82333 C952.191006,1447.19345 947.886735,1446.02366 943.763063,1444.31398 C944.485458,1444.61392 945.207854,1444.91387 945.930249,1445.21381 C942.950369,1443.95404 940.090888,1442.42432 937.412006,1440.62465 C936.689611,1440.14474 936.027416,1439.66483 935.33512,1439.15492 C934.131129,1438.28508 937.141108,1440.59466 935.907017,1439.60484 C935.606019,1439.36488 935.305021,1439.12493 935.004023,1438.85498 C933.800031,1437.86516 932.626139,1436.78536 931.512446,1435.67556 C930.398754,1434.56576 929.345261,1433.39598 928.321868,1432.1962 C928.08107,1431.89625 927.840271,1431.59631 927.569373,1431.29636 C926.54598,1430.06659 928.953964,1433.18602 928.02087,1431.86626 C927.569373,1431.23637 927.087776,1430.60649 926.666379,1429.94661 C924.830292,1427.21711 923.235002,1424.30764 921.940711,1421.2782 C922.241709,1421.99807 922.542707,1422.71794 922.843705,1423.4378 C921.128017,1419.32856 919.924025,1415.03934 919.322029,1410.63015 C919.442428,1411.44 919.532727,1412.21986 919.653127,1413.02971 C919.021031,1408.41056 919.021031,1403.76141 919.623027,1399.14226 C919.502628,1399.95211 919.412328,1400.73197 919.291929,1401.54182 C919.893925,1397.13263 921.067817,1392.84341 922.753406,1388.73417 C922.452408,1389.45404 922.15141,1390.1739 921.850412,1390.89377 C923.024304,1388.10428 924.438994,1385.43477 926.094483,1382.88524 C926.48578,1382.31534 926.846978,1381.71545 927.268375,1381.17555 C927.539273,1380.78562 927.810171,1380.42569 928.08107,1380.06576 C928.863664,1378.98595 927.509173,1380.78562 927.509173,1380.78562 C927.388774,1380.66565 930.248255,1377.60621 930.549253,1377.30626 C931.632845,1376.16647 932.746538,1375.08667 933.92043,1374.06686 C934.552526,1373.49696 935.214721,1372.98705 935.876917,1372.44715 C936.689611,1371.75728 933.98063,1373.8269 935.45552,1372.77709 C935.726418,1372.56713 935.997316,1372.38716 936.268214,1372.1772 C939.037395,1370.19757 942.017275,1368.54787 945.117554,1367.16812 C947.886735,1365.90835 949.632524,1362.27902 949.602424,1359.39955 C949.542224,1356.10015 949.752923,1352.83075 950.17432,1349.56135 C950.053921,1350.3712 949.963621,1351.15106 949.843222,1351.96091 C950.625817,1346.35194 952.130807,1340.89294 954.328092,1335.6739 C954.027094,1336.39376 953.726096,1337.11363 953.425098,1337.8335 C955.020387,1334.08419 956.976874,1330.48485 959.264458,1327.06547 C959.836355,1326.19563 960.46845,1325.32579 961.070446,1324.48595 C962.394837,1322.71627 959.926654,1325.92568 960.859748,1324.7559 C961.190845,1324.33597 961.521943,1323.94605 961.853041,1323.52612 C963.117232,1322.0264 964.441623,1320.58666 965.826214,1319.17692 C967.210805,1317.79717 968.655595,1316.47742 970.190684,1315.21765 C970.581982,1314.88771 971.003379,1314.55777 971.424776,1314.22783 C972.598668,1313.298 969.37799,1315.75755 971.153878,1314.43779 C971.996672,1313.80791 972.869566,1313.20802 973.74246,1312.63812 C977.143737,1310.35854 980.755713,1308.43889 984.548287,1306.81919 C983.825892,1307.11913 983.103497,1307.41908 982.381102,1307.71902 C987.618466,1305.52942 993.096629,1304.0297 998.725291,1303.24984 C997.912597,1303.36982 997.130002,1303.4598 996.317308,1303.57978 C1002.06637,1302.82992 1007.84553,1302.79992 1013.59459,1303.54979 C1012.7819,1303.42981 1011.9993,1303.33982 1011.18661,1303.21985 C1016.81527,1303.96971 1022.29343,1305.46943 1027.5609,1307.62904 C1026.8385,1307.32909 1026.11611,1307.02915 1025.39371,1306.7292 C1029.06589,1308.28892 1032.58756,1310.14858 1035.92864,1312.30818 C1036.74133,1312.84808 1037.58413,1313.41798 1038.36672,1313.98787 C1038.69782,1314.22783 1039.05902,1314.49778 1039.39012,1314.73773 C1040.62421,1315.63757 1037.46373,1313.20802 1039.23962,1314.61776 C1040.71451,1315.81754 1042.1593,1317.07731 1043.51379,1318.39706 C1044.86828,1319.71682 1046.19267,1321.09657 1047.42676,1322.5363 C1048.08896,1323.28617 1048.69095,1324.03603 1049.32305,1324.81589 C1050.34644,1326.07566 1047.87826,1322.92623 1049.08225,1324.51594 C1049.38325,1324.90587 1049.65415,1325.2958 1049.95514,1325.71572 C1052.24273,1328.95513 1054.22932,1332.4045 1055.9149,1336.00384 C1056.7878,1337.86349 1059.34628,1339.69316 1061.30277,1340.14308 C1063.65055,1340.68298 1066.14883,1340.50301 1068.25582,1339.24324 C1069.67051,1338.3734 1071.1454,1337.62354 1072.65039,1336.96366 C1071.928,1337.2636 1071.2056,1337.56355 1070.48321,1337.86349 C1073.13199,1336.7537 1075.90117,1336.00384 1078.73055,1335.55392 C1077.91786,1335.6739 1077.13526,1335.76388 1076.32257,1335.88386 C1079.30245,1335.49393 1082.28233,1335.46393 1085.23211,1335.82387 C1084.41941,1335.70389 1083.63682,1335.61391 1082.82412,1335.49393 C1085.8341,1335.88386 1088.72368,1336.69371 1091.52296,1337.86349 C1090.80057,1337.56355 1090.07817,1337.2636 1089.35578,1336.96366 C1091.19187,1337.77351 1092.96775,1338.70334 1094.65334,1339.81314 C1095.10484,1340.11308 1095.52624,1340.41303 1095.97773,1340.74297 C1097.21182,1341.61281 1094.02125,1339.15326 1095.70683,1340.563 C1096.45933,1341.19288 1097.21182,1341.88276 1097.90412,1342.57263 C1098.59642,1343.2625 1099.28871,1344.01237 1099.92081,1344.76223 C1101.3355,1346.47192 1098.86731,1343.2925 1099.74021,1344.52227 C1100.01111,1344.9122 1100.282,1345.27214 1100.5529,1345.66206 C1101.72679,1347.37175 1102.68999,1349.20142 1103.53278,1351.12106 C1103.23178,1350.4012 1102.93079,1349.68133 1102.62979,1348.96146 C1103.74348,1351.63097 1104.52608,1354.36047 1104.91737,1357.20995 C1104.79697,1356.4001 1104.70667,1355.62024 1104.58627,1354.81039 C1104.61637,1354.96036 1104.61637,1355.08034 1104.64647,1355.23031 C1104.97757,1357.59988 1105.39897,1359.87946 1107.29526,1361.58914 C1109.16144,1363.29883 1111.17813,1363.9887 1113.67641,1364.22866 C1114.36871,1364.28865 1115.061,1364.37863 1115.7533,1364.46862 C1114.9406,1364.34864 1114.15801,1364.25865 1113.34532,1364.13868 C1117.83018,1364.76856 1122.19466,1365.93835 1126.37853,1367.67803 C1125.65613,1367.37808 1124.93374,1367.07814 1124.21134,1366.77819 C1127.16112,1368.03796 1130.0206,1369.53769 1132.66938,1371.33736 C1133.33158,1371.78727 1133.99378,1372.23719 1134.62587,1372.7171 C1134.83657,1372.86708 1135.04727,1373.04704 1135.25797,1373.19702 C1134.86667,1372.89707 1134.44527,1372.59713 1134.05398,1372.26719 C1134.35497,1372.35717 1134.74627,1372.80709 1134.98707,1373.01705 C1136.28136,1374.06686 1137.48535,1375.17665 1138.65924,1376.34644 C1139.77294,1377.45624 1140.85653,1378.65602 1141.87992,1379.8558 C1142.12072,1380.15574 1142.39162,1380.48568 1142.63242,1380.78562 C1143.23441,1381.53549 1141.12743,1378.746 1142.18092,1380.21573 C1142.63242,1380.87561 1143.11401,1381.50549 1143.56551,1382.16537 C1145.4016,1384.89487 1146.93669,1387.77434 1148.23098,1390.77379 C1147.92998,1390.05393 1147.62898,1389.33406 1147.32799,1388.61419 C1149.07377,1392.78342 1150.24767,1397.13263 1150.84966,1401.60181 C1150.72926,1400.79196 1150.63896,1400.0121 1150.51856,1399.20225 C1150.78946,1401.51182 1150.90986,1403.76141 1150.93996,1406.011 C1150.97006,1410.72014 1155.09373,1415.21931 1159.9699,1415.00935 C1164.84607,1414.79939 1169.02994,1411.05008 1169,1406.011 C1168.90954,1383.0952 1155.24423,1360.92927 1134.02388,1351.57098 C1127.40192,1348.66151 1120.84016,1346.95183 1113.61621,1346.23196 C1116.62619,1349.23141 1119.63617,1352.23086 1122.64615,1355.23031 C1121.89366,1349.56135 1120.50907,1344.3723 1117.73989,1339.30323 C1115.4824,1335.104 1112.35202,1331.17472 1108.70995,1328.08529 C1100.6131,1321.18655 1090.28887,1317.16729 1079.57334,1317.58721 C1072.31929,1317.85716 1065.21574,1319.92678 1058.98508,1323.6761 C1063.10876,1324.7559 1067.23243,1325.8357 1071.326,1326.9155 C1059.82788,1302.20003 1034.33335,1285.97301 1007.18333,1285.04318 C981.478108,1284.14334 956.916674,1297.37092 942.980469,1318.78699 C935.214721,1330.7248 931.151249,1345.18215 931.392047,1359.39955 C932.897037,1356.82002 934.371927,1354.2105 935.876917,1351.63097 C915.409055,1360.80929 902.014646,1381.62547 901.051453,1403.79141 C900.268858,1421.99807 908.456002,1440.62465 922.723306,1452.11255 C930.007456,1457.96147 938.315,1462.40066 947.495438,1464.44029 C952.251206,1465.52009 957.157473,1466 962.03364,1466 C967.301104,1466 972.598668,1466 977.866133,1466 C987.768965,1466 997.701898,1466 1007.60473,1466 C1019.58445,1466 1031.56417,1466 1043.54389,1466 C1054.89151,1466 1066.23913,1466 1077.61686,1466 C1085.6836,1466 1093.78045,1466 1101.84719,1466 C1108.92065,1466 1115.8135,1465.97001 1122.79665,1464.3503 C1143.83641,1459.49119 1161.08359,1442.72427 1166.83265,1422.02806 C1168.27744,1416.83901 1168.96974,1411.38001 1169,1406.011 C1169.02994,1401.30186 1164.81597,1396.80269 1159.9699,1397.01265 C1155.06363,1397.22261 1150.97006,1400.97192 1150.93996,1406.011 Z" id="Cloud"></path>
        </g>
    </g>
</svg>