<?xml version="1.0" encoding="UTF-8"?>
<svg width="343px" height="406px" viewBox="0 0 343 406" version="1.1" xmlns="http://www.w3.org/2000/svg" xmlns:xlink="http://www.w3.org/1999/xlink">
    <!-- Generator: Sketch 55.2 (78181) - https://sketchapp.com -->
    <title>rain</title>
    <desc>Created with Sketch.</desc>
    <g id="Page-1" stroke="none" stroke-width="1" fill="none" fill-rule="evenodd">
        <g id="Weather-Icons" transform="translate(-1571.000000, -331.000000)">
            <g id="rain" transform="translate(1571.000000, 331.000000)">
                <g id="Drops" transform="translate(73.000000, 276.000000)" fill="#8AD0CE" fill-rule="nonzero">
                    <path d="M40.4664865,36.4574042 C40.4664865,22.696094 20.2287353,-3.55271368e-15 20.2287353,-3.55271368e-15 C20.2287353,-3.55271368e-15 1.81188398e-13,22.6540197 1.81188398e-13,36.4574042 C1.81188398e-13,47.0000284 6.47944634,56.6981608 20.2407565,56.6981608 C34.0020667,56.6981608 40.4664865,46.1946056 40.4664865,36.4574042 Z M20.1836557,48.6108741 C14.5096322,48.6108741 8.03018582,46.2066268 8.03018582,36.4574042 C8.03018582,28.3701176 20.1836557,12.9588927 20.1836557,12.9588927 C20.1836557,12.9588927 32.3371255,28.3280432 32.3371255,36.4574042 C32.3371255,46.1946056 25.8456579,48.6078688 20.186661,48.6078688 L20.1836557,48.6108741 Z" id="Shape"></path>
                    <path d="M100.240757,28 C100.240757,28 80,50.6540197 80,64.4574042 C80,75.0000284 86.4794463,84.6981608 100.240757,84.6981608 C114.002067,84.6981608 120.469492,74.1555366 120.469492,64.4574042 C120.469492,50.6540197 100.240757,28 100.240757,28 Z M100.240757,76.5657945 C94.566733,76.5657945 88.0872867,74.1615472 88.0872867,64.4123246 C88.0872867,56.3250379 100.240757,40.913813 100.240757,40.913813 C100.240757,40.913813 112.394226,56.2829636 112.394226,64.4123246 C112.394226,74.1555366 105.91478,76.5687998 100.240757,76.5687998 L100.240757,76.5657945 Z" id="Shape"></path>
                    <path d="M31,109.457404 C31,120.000028 37.4794463,129.698161 51.2407565,129.698161 C65.0020667,129.698161 71.4815131,119.155537 71.4815131,109.457404 C71.4815131,95.696094 51.2407565,73 51.2407565,73 C51.2407565,73 31,95.696094 31,109.457404 Z M51.2287353,121.610874 C45.5547118,121.610874 39.0752655,119.206627 39.0752655,109.46041 C39.0752655,101.373123 51.2287353,85.961898 51.2287353,85.961898 C51.2287353,85.961898 63.3822146,101.331049 63.3822146,109.46041 C63.3912211,119.197611 56.9147801,121.610874 51.2287353,121.610874 Z" id="Shape"></path>
                </g>
                <g id="few-Clouds-Copy">
                    <g id="Sun-Copy" transform="translate(90.000000, 0.000000)">
                        <path d="M126.954304,32.9982935 C126.954304,25.0642776 126.954304,17.1302617 126.954304,9.19624573 C126.954304,4.4779105 122.806978,-0.0300530906 117.938377,0.180318544 C113.039723,0.390690178 108.92245,4.14732651 108.92245,9.19624573 C108.92245,17.1302617 108.92245,25.0642776 108.92245,32.9982935 C108.92245,37.7166287 113.069776,42.2245923 117.938377,42.0142207 C122.837031,41.8038491 126.954304,38.0472127 126.954304,32.9982935 L126.954304,32.9982935 Z" id="Path" fill="#000000" fill-rule="nonzero"></path>
                        <path d="M243.650455,125.92245 C235.716439,125.92245 227.782423,125.92245 219.848407,125.92245 C215.130072,125.92245 210.622108,130.069776 210.83248,134.938377 C211.042852,139.837031 214.799488,143.954304 219.848407,143.954304 C227.782423,143.954304 235.716439,143.954304 243.650455,143.954304 C248.36879,143.954304 252.876754,139.806978 252.666382,134.938377 C252.456011,130.039723 248.699374,125.92245 243.650455,125.92245 L243.650455,125.92245 Z" id="Path" fill="#000000" fill-rule="nonzero"></path>
                        <path d="M74.7520857,42.10438 C70.7850777,35.2522753 66.8180698,28.3701176 62.8510618,21.5180129 C60.4768677,17.4307926 54.5864619,15.6576602 50.5292947,18.2722791 C46.4120212,20.9169511 44.7591013,26.2363481 47.2835609,30.5940463 C51.2505688,37.4461509 55.2175768,44.3283087 59.1845848,51.1804133 C61.5587789,55.2676337 67.4491847,57.040766 71.5063519,54.4261471 C75.6236253,51.7814752 77.2765453,46.4620781 74.7520857,42.10438 L74.7520857,42.10438 Z" id="Path" fill="#000000" fill-rule="nonzero"></path>
                        <path d="M222.252655,64.2835609 C215.40055,68.2505688 208.518392,72.2175768 201.666287,76.1845848 C197.579067,78.5587789 195.805935,84.4491847 198.420554,88.5063519 C201.065226,92.6236253 206.384623,94.2765453 210.742321,91.7520857 C217.594425,87.7850777 224.476583,83.8180698 231.328688,79.8510618 C235.415908,77.4768677 237.189041,71.5864619 234.574422,67.5292947 C231.959803,63.4120212 226.640406,61.7591013 222.252655,64.2835609 L222.252655,64.2835609 Z" id="Path" fill="#000000" fill-rule="nonzero"></path>
                        <path d="M173.025692,21.5180129 C169.058684,28.3701176 165.091676,35.2522753 161.124668,42.10438 C158.750474,46.1916003 160.042757,52.1721653 164.370402,54.4261471 C168.667994,56.710182 174.197763,55.5681646 176.692169,51.1804133 C180.659177,44.3283087 184.626185,37.4461509 188.593193,30.5940463 C190.967387,26.5068259 189.675104,20.5262609 185.347459,18.2722791 C181.049867,15.9882442 175.520099,17.1603148 173.025692,21.5180129 L173.025692,21.5180129 Z" id="Path" fill="#000000" fill-rule="nonzero"></path>
                        <path d="M34.2104664,76.1845848 C27.3583618,72.2175768 20.476204,68.2505688 13.6240994,64.2835609 C9.53687903,61.9093667 3.55631399,63.2016496 1.3023322,67.5292947 C-0.981702692,71.8268866 0.160314752,77.3566553 4.54806598,79.8510618 C11.4001706,83.8180698 18.2823284,87.7850777 25.1344331,91.7520857 C29.2216534,94.1262799 35.2022184,92.833997 37.4562002,88.5063519 C39.710182,84.20876 38.5681646,78.7090444 34.2104664,76.1845848 L34.2104664,76.1845848 Z" id="Path" fill="#000000" fill-rule="nonzero"></path>
                        <path d="M231.358741,190.025692 C224.506636,186.058684 217.624479,182.091676 210.772374,178.124668 C206.685154,175.750474 200.704589,177.042757 198.450607,181.370402 C196.166572,185.667994 197.308589,191.197763 201.696341,193.692169 C208.548445,197.659177 215.430603,201.626185 222.282708,205.593193 C226.369928,207.967387 232.350493,206.675104 234.604475,202.347459 C236.88851,198.049867 235.716439,192.520099 231.358741,190.025692 L231.358741,190.025692 Z" id="Path" fill="#000000" fill-rule="nonzero"></path>
                        <path d="M181.049867,134.938377 C181.049867,138.124005 180.839496,141.309632 180.418752,144.49526 C180.538965,143.683826 180.629124,142.902446 180.749336,142.091013 C179.877797,148.402162 178.224877,154.563045 175.760523,160.453451 C176.061054,159.732177 176.361585,159.010903 176.662116,158.289628 C174.828878,162.58722 172.635002,166.704494 170.050436,170.551289 C169.419321,171.482935 168.758153,172.414581 168.096985,173.316174 C167.916667,173.586651 167.706295,173.827076 167.525976,174.097554 C168.457622,172.925484 168.607888,172.685059 168.036879,173.406333 C167.736348,173.76697 167.435817,174.15766 167.135286,174.518297 C165.692738,176.261377 164.16003,177.914297 162.567217,179.50711 C160.974403,181.099924 159.29143,182.632632 157.578403,184.07518 C157.217766,184.375711 156.827076,184.676242 156.466439,184.976773 C155.745165,185.547782 155.955537,185.367463 157.15766,184.46587 C156.887182,184.676242 156.646758,184.85656 156.37628,185.036879 C155.474687,185.698047 154.543041,186.359215 153.611396,186.99033 C149.734547,189.574896 145.647327,191.798824 141.349735,193.60201 C142.071009,193.301479 142.792283,193.000948 143.513557,192.700417 C137.623151,195.164771 145.311149,179.12846 139,180 C139.811433,179.879788 126.188567,174.120212 127,174 C120.658798,174.811433 100.890406,150.464353 95,148 C95.7212742,148.300531 101.278726,147.699469 102,148 C97.702408,146.166761 91.8467956,156.584566 88,154 C87.0683542,153.368885 80.9015927,158.661168 80,158 C79.7295222,157.819681 73.7212742,145.571009 73,145 C72.6393629,144.699469 57.7720895,115.313709 60.2364429,109.423303 C59.935912,110.144577 59.6353811,110.865851 59.3348502,111.587126 C61.1680887,107.289534 63.3619644,103.17226 65.9465301,99.3254645 C66.5776451,98.3938187 67.238813,97.4621729 67.899981,96.5605802 C68.0802996,96.2901024 68.2906712,96.0496777 68.4709898,95.7791998 C67.539344,96.9512704 67.3890785,97.1916951 67.9600872,96.4704209 C68.2606181,96.1097838 68.561149,95.7190937 68.8616799,95.3584566 C70.3042283,93.6153773 71.8369359,91.9624573 73.4297497,90.3696435 C75.0225635,88.7768297 76.7055366,87.2441221 78.4185628,85.8015738 C78.7791998,85.5010429 79.16989,85.2005119 79.5305271,84.899981 C80.2518013,84.3289723 80.0414297,84.5092909 78.839306,85.4108836 C79.1097838,85.2005119 79.3502086,85.0201934 79.6206864,84.8398749 C80.5222791,84.1787069 81.4539249,83.5175389 82.3855707,82.886424 C86.2624194,80.3018582 90.3496397,78.0779295 94.6472317,76.274744 C93.9259575,76.5752749 93.2046834,76.8758058 92.4834092,77.1763367 C98.3738149,74.7119833 104.534699,73.0590633 110.845848,72.1875237 C110.034414,72.3077361 109.253034,72.3978953 108.4416,72.5181077 C114.782802,71.7066743 121.214164,71.7066743 127.555366,72.5181077 C126.743932,72.3978953 125.962552,72.3077361 125.151119,72.1875237 C131.462268,73.0590633 137.623151,74.7119833 143.513557,77.1763367 C142.792283,76.8758058 142.071009,76.5752749 141.349735,76.274744 C145.647327,78.1079826 149.7646,80.3018582 153.611396,82.886424 C154.543041,83.5175389 155.474687,84.1787069 156.37628,84.8398749 C156.646758,85.0201934 156.887182,85.230565 157.15766,85.4108836 C155.98559,84.4792378 155.745165,84.3289723 156.466439,84.899981 C156.827076,85.2005119 157.217766,85.5010429 157.578403,85.8015738 C159.321483,87.2441221 160.974403,88.7768297 162.567217,90.3696435 C164.16003,91.9624573 165.692738,93.6454304 167.135286,95.3584566 C167.435817,95.7190937 167.736348,96.1097838 168.036879,96.4704209 C168.607888,97.1916951 168.427569,96.9813235 167.525976,95.7791998 C167.736348,96.0496777 167.916667,96.2901024 168.096985,96.5605802 C168.758153,97.4621729 169.419321,98.3938187 170.050436,99.3254645 C172.635002,103.202313 174.858931,107.289534 176.662116,111.587126 C176.361585,110.865851 176.061054,110.144577 175.760523,109.423303 C178.224877,115.313709 179.877797,121.474592 180.749336,127.785741 C180.629124,126.974308 180.538965,126.192928 180.418752,125.381494 C180.839496,128.567122 181.049867,131.752749 181.049867,134.938377 C181.07992,139.656712 185.197194,144.164676 190.065794,143.954304 C194.934395,143.743932 199.111775,139.987296 199.082042,134.938377 C199.021615,118.379124 193.972696,101.669606 184.235495,88.205821 C174.408134,74.621824 161.154721,64.4338263 145.406902,58.5734736 C114.241847,47.0030338 77.186386,56.9806598 55.9989571,82.55584 C44.9694729,95.839306 38.4178991,111.82755 37.035457,129.047971 C35.6830679,145.727436 35.2545506,111.754835 44,126 C52.2645999,139.433732 93.6346227,151.448426 108,158 C120.252386,163.552579 136.573954,182.768446 149,194 C152.849767,197.479697 151.905476,203.817483 156,203 C168.866504,200.429113 171.127014,199.841153 177,193 C185.750291,182.807215 194.92444,167.794207 197.909651,148.462268 C198.600872,143.984357 199.051669,139.476394 199.082042,134.938377 C199.111775,130.220042 194.934395,125.712078 190.065794,125.92245 C185.167141,126.132821 181.07992,129.889458 181.049867,134.938377 Z" id="Path" fill="#000000" fill-rule="nonzero"></path>
                        <path d="M135,188 C169.793939,188 181,169.793939 181,135 C181,100.206061 152.793939,72 118,72 C83.2060608,72 55,100.206061 55,135 C55,152.149981 88.8833795,141.639897 100,153 C108.72711,161.918256 118.727908,167.307852 124,177 C125.636948,180.009344 130.819645,188 135,188 Z" id="Oval" fill="#FFE963"></path>
                    </g>
                    <path d="M249.552131,228.247378 C249.552131,230.531413 249.401866,232.815448 249.101335,235.099483 C249.221547,234.28805 249.311706,233.506669 249.431919,232.695236 C248.830857,237.11304 247.658786,241.380579 245.975813,245.527906 C246.276344,244.806631 246.576875,244.085357 246.877406,243.364083 C245.615176,246.369392 244.082469,249.254489 242.279283,251.959267 C241.85854,252.590382 241.407744,253.221497 240.956947,253.852612 C240.566257,254.393567 239.454293,255.475479 241.257478,253.491975 C240.987,253.762452 240.776629,254.093036 240.536204,254.393567 C239.514399,255.625744 238.432488,256.827868 237.29047,257.969885 C236.208559,259.051796 235.066541,260.103654 233.894471,261.095406 C233.834365,261.12546 232.842613,261.996999 232.81256,261.966946 C232.81256,261.966946 234.796064,260.464292 233.353515,261.546203 C232.7224,261.996999 232.091285,262.447796 231.460171,262.868539 C228.695286,264.73183 225.750083,266.294591 222.654615,267.616927 C223.375889,267.316396 224.097163,267.015865 224.818438,266.715334 C220.701164,268.398307 216.403572,269.570378 211.985768,270.17144 C212.797201,270.051227 213.578582,269.961068 214.390015,269.840856 C207.808388,270.682342 200.92623,270.291652 194.314551,270.291652 C182.293314,270.291652 170.272078,270.291652 158.220789,270.291652 C143.464721,270.291652 128.708654,270.291652 113.952586,270.291652 C101.390394,270.291652 88.7981493,270.291652 76.2359574,270.291652 C70.8865073,270.291652 65.5370572,270.321705 60.187607,270.291652 C57.8134129,270.291652 55.4692718,270.111334 53.1251307,269.810803 C53.9365642,269.931015 54.7179445,270.021174 55.529378,270.141387 C51.1115737,269.510272 46.8139817,268.338201 42.6967083,266.625175 C43.4179825,266.925706 44.1392566,267.226237 44.8605308,267.526768 C41.8852748,266.264538 39.0302312,264.73183 36.3555062,262.928645 C35.634232,262.447796 34.973064,261.966946 34.2818429,261.456044 C33.0797193,260.584504 36.0850283,262.898592 34.8528516,261.90684 C34.5523207,261.666415 34.2517898,261.42599 33.9512589,261.155513 C32.7491353,260.163761 31.5770647,259.081849 30.4651004,257.969885 C29.353136,256.857921 28.3012779,255.68585 27.2794728,254.483727 C27.0390481,254.183196 26.7986233,253.882665 26.5281455,253.582134 C25.5063404,252.349957 27.9105877,255.475479 26.9789419,254.153143 C26.5281455,253.522028 26.0472961,252.890913 25.6265528,252.229745 C23.7933143,249.494913 22.2005005,246.579764 20.9082176,243.544402 C21.2087485,244.265676 21.5092794,244.98695 21.8098103,245.708224 C20.0967841,241.590951 18.8946605,237.293359 18.2935987,232.875554 C18.4138111,233.686988 18.5039703,234.468368 18.6241827,235.279802 C17.9930678,230.651626 17.9930678,225.993397 18.5941296,221.365221 C18.4739172,222.176654 18.383758,222.958034 18.2635456,223.769468 C18.8646074,219.351664 20.0366779,215.054072 21.719651,210.936798 C21.4191201,211.658072 21.1185892,212.379347 20.8180583,213.100621 C21.9901288,210.305683 23.4026241,207.630958 25.0555441,205.076446 C25.4462343,204.505437 25.8068713,203.904375 26.2276146,203.363419 C26.4980924,202.972729 26.7685702,202.612092 27.0390481,202.251455 C27.8204284,201.169544 26.4680393,202.972729 26.4680393,202.972729 C26.347827,202.852517 29.2028706,199.787102 29.5034015,199.486571 C30.5853128,198.344553 31.6972771,197.262642 32.8693476,196.240837 C33.5004625,195.669828 34.1616305,195.158926 34.8227985,194.61797 C35.634232,193.926749 32.9294538,196.000412 34.4020553,194.948554 C34.6725331,194.738182 34.9430109,194.557864 35.2134887,194.347492 C37.9783731,192.363988 40.953629,190.711068 44.0490974,189.328626 C46.8139817,188.066396 48.557061,184.429972 48.5270079,181.544876 C48.4669017,178.239036 48.6772733,174.963249 49.0980166,171.687462 C48.9778042,172.498895 48.887645,173.280276 48.7674326,174.091709 C49.5488129,168.471781 51.0514675,163.002119 53.2453431,157.772881 C52.9448122,158.494155 52.6442813,159.215429 52.3437504,159.936703 C53.9365642,156.180067 55.8900151,152.573696 58.17405,149.147644 C58.7450587,148.276104 59.3761736,147.404565 59.9772354,146.563078 C61.2995714,144.789946 58.835218,148.005626 59.7668638,146.833556 C60.0974478,146.412813 60.4280318,146.022122 60.7586158,145.601379 C62.0208456,144.098725 63.3431815,142.656176 64.7256237,141.243681 C66.1080659,139.861239 67.5506142,138.538903 69.0833219,137.276673 C69.474012,136.946089 69.8947553,136.615505 70.3154986,136.284921 C71.4875691,135.353275 68.2718884,137.817629 70.0450208,136.495293 C70.8865073,135.864178 71.7580469,135.263116 72.6295866,134.692107 C76.0255858,132.408072 79.6319567,130.484675 83.4186461,128.861808 C82.6973719,129.162339 81.9760977,129.462869 81.2548236,129.7634 C86.4840613,127.569525 91.9537238,126.06687 97.5736518,125.28549 C96.7622183,125.405702 95.980838,125.495862 95.1694045,125.616074 C100.909545,124.864747 106.679738,124.834694 112.419879,125.586021 C111.608445,125.465808 110.827065,125.375649 110.015631,125.255437 C115.635559,126.006764 121.105222,127.509419 126.364513,129.673241 C125.643238,129.37271 124.921964,129.072179 124.20069,128.771648 C127.867167,130.334409 131.383379,132.197701 134.719272,134.361523 C135.530705,134.902479 136.372192,135.473488 137.153572,136.044496 C137.484156,136.284921 137.844793,136.555399 138.175377,136.795824 C139.407554,137.697416 136.251979,135.263116 138.025112,136.675611 C139.497713,137.877735 140.940262,139.139965 142.292651,140.462301 C143.64504,141.784637 144.967376,143.167079 146.199552,144.609627 C146.86072,145.360954 147.461782,146.112282 148.092897,146.893662 C149.114702,148.155892 146.650349,145.000317 147.852472,146.593131 C148.153003,146.983821 148.423481,147.374512 148.724012,147.795255 C151.008047,151.040989 152.991551,154.497094 154.674524,158.103465 C155.546064,159.966756 158.100576,161.799995 160.054027,162.250791 C162.398168,162.791747 164.892575,162.611428 166.996291,161.349199 C168.408786,160.477659 169.881388,159.726332 171.384042,159.065164 C170.662768,159.365695 169.941494,159.666226 169.22022,159.966756 C171.864892,158.854792 174.629776,158.103465 177.454767,157.652669 C176.643333,157.772881 175.861953,157.86304 175.050519,157.983253 C178.025775,157.592562 181.001031,157.562509 183.946234,157.923146 C183.134801,157.802934 182.35342,157.712775 181.541987,157.592562 C184.547296,157.983253 187.432393,158.794686 190.22733,159.966756 C189.506056,159.666226 188.784782,159.365695 188.063508,159.065164 C189.896746,159.876597 191.669879,160.808243 193.352852,161.920207 C193.803648,162.220738 194.224391,162.521269 194.675188,162.851853 C195.907364,163.723393 192.721737,161.259039 194.40471,162.671535 C195.156037,163.30265 195.907364,163.993871 196.598585,164.685092 C197.289807,165.376313 197.981028,166.12764 198.612142,166.878967 C200.024638,168.591993 197.560284,165.406366 198.431824,166.638543 C198.702302,167.029233 198.97278,167.38987 199.243257,167.78056 C200.415328,169.493586 201.377027,171.326825 202.218513,173.250223 C201.917982,172.528948 201.617452,171.807674 201.316921,171.0864 C202.428885,173.761125 203.210265,176.495956 203.600956,179.351 C203.480743,178.539566 203.390584,177.758186 203.270372,176.946753 C203.300425,177.097018 203.300425,177.217231 203.330478,177.367496 C203.661062,179.74169 204.081805,182.025725 205.97515,183.738751 C207.838441,185.451777 209.851998,186.142998 212.346405,186.383423 C213.037626,186.443529 213.728847,186.533689 214.420068,186.623848 C213.608635,186.503636 212.827254,186.413476 212.015821,186.293264 C216.493731,186.924379 220.85143,188.096449 225.028809,189.839529 C224.307535,189.538998 223.586261,189.238467 222.864987,188.937936 C225.81019,190.200166 228.665233,191.70282 231.309905,193.506006 C231.971073,193.956802 232.632241,194.407598 233.263356,194.888448 C233.473728,195.038713 233.684099,195.219032 233.894471,195.369297 C233.503781,195.068766 233.083037,194.768235 232.692347,194.437651 C232.992878,194.527811 233.383568,194.978607 233.623993,195.188979 C234.916276,196.240837 236.1184,197.352801 237.29047,198.524872 C238.402434,199.636836 239.484346,200.83896 240.506151,202.041083 C240.746576,202.341614 241.017053,202.672198 241.257478,202.972729 C241.85854,203.724056 239.754824,200.929119 240.806682,202.40172 C241.257478,203.062888 241.738328,203.694003 242.189124,204.355171 C244.022362,207.090003 245.55507,209.975099 246.847353,212.980408 C246.546822,212.259134 246.246291,211.53786 245.94576,210.816586 C247.688839,214.993965 248.86091,219.351664 249.461972,223.829574 C249.341759,223.018141 249.2516,222.23676 249.131388,221.425327 C249.401866,223.739415 249.522078,225.993397 249.552131,228.247378 C249.582184,232.965714 253.699458,237.473677 258.568058,237.263306 C263.436659,237.052934 267.614039,233.296298 267.584147,228.247378 C267.493826,205.286817 253.849723,183.077583 232.662294,173.701019 C226.050614,170.785869 219.49904,169.072843 212.286299,168.351569 C215.291608,171.356878 218.296917,174.362187 221.302226,177.367496 C220.550899,171.687462 219.168456,166.488277 216.403572,161.409305 C214.14959,157.201872 211.024069,153.264917 207.387645,150.169449 C199.303364,143.257238 188.995153,139.230124 178.296253,139.650867 C171.053458,139.921345 163.960929,141.995008 157.739939,145.751645 C161.857213,146.833556 165.974486,147.915467 170.061706,148.997378 C158.581426,124.233632 133.126458,107.97491 106.01857,107.043264 C80.3532308,106.141671 55.8299089,119.395084 41.9153279,140.852991 C34.1616305,152.814121 30.1044633,167.299711 30.344888,181.544876 C31.8475426,178.96031 33.320144,176.345691 34.8227985,173.761125 C14.3866969,182.957371 1.01307157,203.814216 0.0513726743,226.02345 C-0.730007682,244.265676 7.44443297,262.928645 21.6895979,274.438979 C28.9624459,280.299331 37.2570989,284.747189 46.4232915,286.790799 C51.1716798,287.87271 56.0703336,288.35356 60.9389343,288.35356 C66.1982252,288.35356 71.4875691,288.35356 76.74686,288.35356 C86.6343268,288.35356 96.5518467,288.35356 106.439314,288.35356 C118.400444,288.35356 130.361574,288.35356 142.322704,288.35356 C153.652719,288.35356 164.982734,288.35356 176.342802,288.35356 C184.397031,288.35356 192.481312,288.35356 200.53554,288.35356 C207.598017,288.35356 214.480174,288.323507 221.452491,286.70064 C242.459602,281.832039 259.680023,265.032361 265.420163,244.295729 C266.862711,239.096544 267.553932,233.626882 267.584147,228.247378 C267.614039,223.529043 263.406606,219.02108 258.568058,219.231451 C253.669405,219.441823 249.582184,223.198459 249.552131,228.247378 Z" id="Cloud-Copy" fill="#000000" fill-rule="nonzero"></path>
                </g>
            </g>
        </g>
    </g>
</svg>