<?xml version="1.0" encoding="UTF-8"?>
<svg width="325px" height="433px" viewBox="0 0 325 433" version="1.1" xmlns="http://www.w3.org/2000/svg" xmlns:xlink="http://www.w3.org/1999/xlink">
    <!-- Generator: Sketch 55.2 (78181) - https://sketchapp.com -->
    <title>rain night</title>
    <desc>Created with Sketch.</desc>
    <g id="Page-1" stroke="none" stroke-width="1" fill="none" fill-rule="evenodd">
        <g id="Weather-Icons" transform="translate(-749.000000, -639.000000)" fill-rule="nonzero">
            <g id="rain-night" transform="translate(749.000000, 639.000000)">
                <g id="Night-Copy" transform="translate(104.000000, 0.000000)">
                    <path d="M143.277165,174.659127 C92.6668234,174.659127 51.3231637,133.301202 51.3231637,82.6733963 C51.3231637,68.649732 54.4120578,55.101446 60.8274533,42.2662278 C62.0154895,39.8893355 61.540275,37.274754 59.6394171,35.6109295 C57.7385592,33.9471049 55.1248795,33.4717264 52.9864144,34.6601725 C20.4342226,52.7245538 0,86.9518024 0,124.031322 C0,129.699548 2.37069022,136.483013 6.41160986,143.821901 C6.79159577,144.51201 17.7947522,140.075026 23,146 C29.1842555,153.039349 39.0959433,145.644685 47,157 C52.7681509,165.286779 51.9333303,173.130967 63,175 C63.8337268,175.140807 62.0517043,178 63,178 C64.2528054,178 67.0955191,175.288394 68,175 C72.8712341,173.446806 76.5807911,173.956069 80,173 C87.022291,171.036448 92.9303532,176.097219 96,178 C100.79071,180.969617 114.462753,201 117,201 C117.913925,201 125.049576,205.052985 132,210 C134.808292,211.998822 136.28607,220.125033 139.323653,218.930329 C161.138499,210.350387 179.677406,194.340081 191.273828,172.995302 C192.461864,170.856099 192.224257,168.003829 190.323399,166.340004 C188.660148,164.43849 157.295992,174.659127 143.277165,174.659127 Z" id="Path" stroke="#000000" stroke-width="8" fill="#FFE963"></path>
                    <path d="M103.559751,108.826736 C104.74125,109.769458 105.21385,111.183542 104.74125,112.597625 L100.960453,128.152545 C100.251554,131.452073 103.796051,134.28024 106.867949,132.394796 L120.573338,124.145975 C121.754837,123.438933 123.408936,123.438933 124.590435,124.145975 L138.295824,132.394796 C141.367722,134.28024 144.912219,131.452073 144.20332,128.152545 L140.422523,112.597625 C140.186223,111.183542 140.658823,109.769458 141.604022,108.826736 L153.655312,98.4567895 C156.25461,96.0999836 154.836812,91.8577328 151.528614,91.6220522 L135.696526,90.4436492 C134.278727,90.2079687 132.860929,89.5009269 132.388329,88.0868433 L126.244534,73.4746463 C124.826735,70.1751179 120.337038,70.1751179 119.155539,73.4746463 L113.011744,88.0868433 C112.539144,89.5009269 111.121345,90.4436492 109.703546,90.4436492 L93.6351588,91.6220522 C90.0906616,91.8577328 88.6728627,96.0999836 91.5084605,98.4567895 L103.559751,108.826736 Z" id="Path" fill="#000000"></path>
                    <path d="M121.877439,31.2558662 C122.831488,31.970286 123.07,33.1609856 122.831488,34.3516853 L119.730827,46.9731018 C119.01529,49.8307809 122.115951,51.9740403 124.501075,50.5452007 L135.711157,43.6391427 C136.665207,42.9247229 138.096281,42.9247229 139.050331,43.6391427 L150.260413,50.5452007 C152.645537,51.9740403 155.746198,49.8307809 155.030661,46.9731018 L151.93,34.3516853 C151.691487,33.1609856 152.168512,31.970286 152.884049,31.2558662 L162.901569,22.6828286 C165.048181,20.7777091 163.855619,17.2056101 160.99347,17.2056101 L148.352314,16.0149105 C147.159752,16.0149105 146.205702,15.0623508 145.728677,14.109791 L140.719917,1.96465445 C139.527355,-0.654884815 135.949669,-0.654884815 134.757108,1.96465445 L129.748347,14.109791 C129.271323,15.3004907 128.317273,16.0149105 127.124711,16.0149105 L114.00653,16.9674702 C111.144381,17.2056101 109.951819,20.7777091 112.098431,22.4446887 L121.877439,31.2558662 Z" id="Path" fill="#000000"></path>
                    <path d="M219.90649,73.2120309 C222.043485,71.3266596 220.856266,67.7915884 218.00694,67.7915884 L204.947529,66.8489027 C203.76031,66.8489027 202.810534,65.906217 202.335647,64.9635314 L197.349326,52.9442892 C196.162107,50.3519036 192.600449,50.3519036 191.41323,52.9442892 L186.664353,64.72786 C186.189466,65.906217 185.23969,66.6132313 184.052471,66.6132313 L170.99306,67.5559169 C168.143734,67.7915884 166.956515,71.3266596 169.09351,72.9763595 L179.066151,81.4605305 C180.015926,82.1675447 180.25337,83.3459018 180.015926,84.5242589 L176.929156,97.0148439 C176.216825,99.8429009 179.303594,101.963944 181.678033,100.549915 L192.837893,93.7154441 C193.787668,93.0084298 195.212332,93.0084298 196.162107,93.7154441 L207.321967,100.549915 C209.696406,101.963944 212.783175,99.8429009 212.070844,97.0148439 L208.984074,84.5242589 C208.74663,83.3459018 209.221518,82.1675447 209.933849,81.4605305 L219.90649,73.2120309 Z" id="Path" fill="#000000"></path>
                </g>
                <g id="rain-copy" transform="translate(0.000000, 134.000000)">
                    <g id="Drops" transform="translate(73.000000, 169.000000)" fill="#8AD0CE">
                        <path d="M40.4664865,36.4574042 C40.4664865,22.696094 20.2287353,-3.55271368e-15 20.2287353,-3.55271368e-15 C20.2287353,-3.55271368e-15 1.81188398e-13,22.6540197 1.81188398e-13,36.4574042 C1.81188398e-13,47.0000284 6.47944634,56.6981608 20.2407565,56.6981608 C34.0020667,56.6981608 40.4664865,46.1946056 40.4664865,36.4574042 Z M20.1836557,48.6108741 C14.5096322,48.6108741 8.03018582,46.2066268 8.03018582,36.4574042 C8.03018582,28.3701176 20.1836557,12.9588927 20.1836557,12.9588927 C20.1836557,12.9588927 32.3371255,28.3280432 32.3371255,36.4574042 C32.3371255,46.1946056 25.8456579,48.6078688 20.186661,48.6078688 L20.1836557,48.6108741 Z" id="Shape"></path>
                        <path d="M100.240757,28 C100.240757,28 80,50.6540197 80,64.4574042 C80,75.0000284 86.4794463,84.6981608 100.240757,84.6981608 C114.002067,84.6981608 120.469492,74.1555366 120.469492,64.4574042 C120.469492,50.6540197 100.240757,28 100.240757,28 Z M100.240757,76.5657945 C94.566733,76.5657945 88.0872867,74.1615472 88.0872867,64.4123246 C88.0872867,56.3250379 100.240757,40.913813 100.240757,40.913813 C100.240757,40.913813 112.394226,56.2829636 112.394226,64.4123246 C112.394226,74.1555366 105.91478,76.5687998 100.240757,76.5687998 L100.240757,76.5657945 Z" id="Shape"></path>
                        <path d="M31,109.457404 C31,120.000028 37.4794463,129.698161 51.2407565,129.698161 C65.0020667,129.698161 71.4815131,119.155537 71.4815131,109.457404 C71.4815131,95.696094 51.2407565,73 51.2407565,73 C51.2407565,73 31,95.696094 31,109.457404 Z M51.2287353,121.610874 C45.5547118,121.610874 39.0752655,119.206627 39.0752655,109.46041 C39.0752655,101.373123 51.2287353,85.961898 51.2287353,85.961898 C51.2287353,85.961898 63.3822146,101.331049 63.3822146,109.46041 C63.3912211,119.197611 56.9147801,121.610874 51.2287353,121.610874 Z" id="Shape"></path>
                    </g>
                    <g id="few-Clouds-Copy" fill="#000000">
                        <path d="M249.552131,121.247378 C249.552131,123.531413 249.401866,125.815448 249.101335,128.099483 C249.221547,127.28805 249.311706,126.506669 249.431919,125.695236 C248.830857,130.11304 247.658786,134.380579 245.975813,138.527906 C246.276344,137.806631 246.576875,137.085357 246.877406,136.364083 C245.615176,139.369392 244.082469,142.254489 242.279283,144.959267 C241.85854,145.590382 241.407744,146.221497 240.956947,146.852612 C240.566257,147.393567 239.454293,148.475479 241.257478,146.491975 C240.987,146.762452 240.776629,147.093036 240.536204,147.393567 C239.514399,148.625744 238.432488,149.827868 237.29047,150.969885 C236.208559,152.051796 235.066541,153.103654 233.894471,154.095406 C233.834365,154.12546 232.842613,154.996999 232.81256,154.966946 C232.81256,154.966946 234.796064,153.464292 233.353515,154.546203 C232.7224,154.996999 232.091285,155.447796 231.460171,155.868539 C228.695286,157.73183 225.750083,159.294591 222.654615,160.616927 C223.375889,160.316396 224.097163,160.015865 224.818438,159.715334 C220.701164,161.398307 216.403572,162.570378 211.985768,163.17144 C212.797201,163.051227 213.578582,162.961068 214.390015,162.840856 C207.808388,163.682342 200.92623,163.291652 194.314551,163.291652 C182.293314,163.291652 170.272078,163.291652 158.220789,163.291652 C143.464721,163.291652 128.708654,163.291652 113.952586,163.291652 C101.390394,163.291652 88.7981493,163.291652 76.2359574,163.291652 C70.8865073,163.291652 65.5370572,163.321705 60.187607,163.291652 C57.8134129,163.291652 55.4692718,163.111334 53.1251307,162.810803 C53.9365642,162.931015 54.7179445,163.021174 55.529378,163.141387 C51.1115737,162.510272 46.8139817,161.338201 42.6967083,159.625175 C43.4179825,159.925706 44.1392566,160.226237 44.8605308,160.526768 C41.8852748,159.264538 39.0302312,157.73183 36.3555062,155.928645 C35.634232,155.447796 34.973064,154.966946 34.2818429,154.456044 C33.0797193,153.584504 36.0850283,155.898592 34.8528516,154.90684 C34.5523207,154.666415 34.2517898,154.42599 33.9512589,154.155513 C32.7491353,153.163761 31.5770647,152.081849 30.4651004,150.969885 C29.353136,149.857921 28.3012779,148.68585 27.2794728,147.483727 C27.0390481,147.183196 26.7986233,146.882665 26.5281455,146.582134 C25.5063404,145.349957 27.9105877,148.475479 26.9789419,147.153143 C26.5281455,146.522028 26.0472961,145.890913 25.6265528,145.229745 C23.7933143,142.494913 22.2005005,139.579764 20.9082176,136.544402 C21.2087485,137.265676 21.5092794,137.98695 21.8098103,138.708224 C20.0967841,134.590951 18.8946605,130.293359 18.2935987,125.875554 C18.4138111,126.686988 18.5039703,127.468368 18.6241827,128.279802 C17.9930678,123.651626 17.9930678,118.993397 18.5941296,114.365221 C18.4739172,115.176654 18.383758,115.958034 18.2635456,116.769468 C18.8646074,112.351664 20.0366779,108.054072 21.719651,103.936798 C21.4191201,104.658072 21.1185892,105.379347 20.8180583,106.100621 C21.9901288,103.305683 23.4026241,100.630958 25.0555441,98.0764455 C25.4462343,97.5054368 25.8068713,96.904375 26.2276146,96.3634194 C26.4980924,95.9727292 26.7685702,95.6120921 27.0390481,95.251455 C27.8204284,94.1695437 26.4680393,95.9727292 26.4680393,95.9727292 C26.347827,95.8525168 29.2028706,92.7871016 29.5034015,92.4865707 C30.5853128,91.3445532 31.6972771,90.262642 32.8693476,89.2408369 C33.5004625,88.6698282 34.1616305,88.1589256 34.8227985,87.61797 C35.634232,86.9267489 32.9294538,89.0004122 34.4020553,87.948554 C34.6725331,87.7381823 34.9430109,87.5578638 35.2134887,87.3474922 C37.9783731,85.3639882 40.953629,83.7110682 44.0490974,82.328626 C46.8139817,81.0663962 48.557061,77.4299723 48.5270079,74.5448756 C48.4669017,71.2390356 48.6772733,67.9632487 49.0980166,64.6874618 C48.9778042,65.4988953 48.887645,66.2802756 48.7674326,67.0917091 C49.5488129,61.4717811 51.0514675,56.0021186 53.2453431,50.7728809 C52.9448122,51.494155 52.6442813,52.2154292 52.3437504,52.9367034 C53.9365642,49.1800671 55.8900151,45.5736962 58.17405,42.1476439 C58.7450587,41.2761042 59.3761736,40.4045646 59.9772354,39.5630781 C61.2995714,37.7899457 58.835218,41.0056264 59.7668638,39.8335559 C60.0974478,39.4128126 60.4280318,39.0221224 60.7586158,38.6013792 C62.0208456,37.0987246 63.3431815,35.6561763 64.7256237,34.243681 C66.1080659,32.8612388 67.5506142,31.5389029 69.0833219,30.2766731 C69.474012,29.9460891 69.8947553,29.6155051 70.3154986,29.2849211 C71.4875691,28.3532753 68.2718884,30.8176287 70.0450208,29.4952927 C70.8865073,28.8641778 71.7580469,28.263116 72.6295866,27.6921073 C76.0255858,25.4080724 79.6319567,23.4846746 83.4186461,21.8618077 C82.6973719,22.1623386 81.9760977,22.4628695 81.2548236,22.7634004 C86.4840613,20.5695248 91.9537238,19.0668702 97.5736518,18.2854899 C96.7622183,18.4057023 95.980838,18.4958615 95.1694045,18.6160739 C100.909545,17.8647466 106.679738,17.8346935 112.419879,18.5860208 C111.608445,18.4658084 110.827065,18.3756492 110.015631,18.2554368 C115.635559,19.0067641 121.105222,20.5094186 126.364513,22.6732411 C125.643238,22.3727102 124.921964,22.0721793 124.20069,21.7716484 C127.867167,23.3344091 131.383379,25.1977007 134.719272,27.3615233 C135.530705,27.9024789 136.372192,28.4734876 137.153572,29.0444963 C137.484156,29.2849211 137.844793,29.5553989 138.175377,29.7958236 C139.407554,30.6974163 136.251979,28.263116 138.025112,29.6756112 C139.497713,30.8777349 140.940262,32.1399647 142.292651,33.4623007 C143.64504,34.7846366 144.967376,36.1670788 146.199552,37.6096272 C146.86072,38.3609544 147.461782,39.1122817 148.092897,39.8936621 C149.114702,41.1558919 146.650349,38.0003173 147.852472,39.5931312 C148.153003,39.9838213 148.423481,40.3745115 148.724012,40.7952548 C151.008047,44.0409886 152.991551,47.497094 154.674524,51.1034649 C155.546064,52.9667565 158.100576,54.799995 160.054027,55.2507914 C162.398168,55.791747 164.892575,55.6114285 166.996291,54.3491987 C168.408786,53.477659 169.881388,52.7263318 171.384042,52.0651638 C170.662768,52.3656947 169.941494,52.6662256 169.22022,52.9667565 C171.864892,51.8547921 174.629776,51.1034649 177.454767,50.6526685 C176.643333,50.7728809 175.861953,50.8630401 175.050519,50.9832525 C178.025775,50.5925623 181.001031,50.5625092 183.946234,50.9231463 C183.134801,50.802934 182.35342,50.7127747 181.541987,50.5925623 C184.547296,50.9832525 187.432393,51.7946859 190.22733,52.9667565 C189.506056,52.6662256 188.784782,52.3656947 188.063508,52.0651638 C189.896746,52.8765972 191.669879,53.808243 193.352852,54.9202074 C193.803648,55.2207383 194.224391,55.5212692 194.675188,55.8518532 C195.907364,56.7233928 192.721737,54.2590394 194.40471,55.6715346 C195.156037,56.3026495 195.907364,56.9938706 196.598585,57.6850917 C197.289807,58.3763128 197.981028,59.1276401 198.612142,59.8789673 C200.024638,61.5919935 197.560284,58.4063659 198.431824,59.6385426 C198.702302,60.0292328 198.97278,60.3898699 199.243257,60.78056 C200.415328,62.4935862 201.377027,64.3268247 202.218513,66.2502225 C201.917982,65.5289484 201.617452,64.8076742 201.316921,64.0864 C202.428885,66.7611251 203.210265,69.4959563 203.600956,72.3509999 C203.480743,71.5395665 203.390584,70.7581861 203.270372,69.9467527 C203.300425,70.0970181 203.300425,70.2172305 203.330478,70.367496 C203.661062,72.7416901 204.081805,75.025725 205.97515,76.7387512 C207.838441,78.4517773 209.851998,79.1429984 212.346405,79.3834231 C213.037626,79.4435293 213.728847,79.5336886 214.420068,79.6238479 C213.608635,79.5036355 212.827254,79.4134762 212.015821,79.2932639 C216.493731,79.9243788 220.85143,81.0964493 225.028809,82.8395286 C224.307535,82.5389977 223.586261,82.2384668 222.864987,81.9379359 C225.81019,83.2001657 228.665233,84.7028202 231.309905,86.5060056 C231.971073,86.956802 232.632241,87.4075983 233.263356,87.8884478 C233.473728,88.0387133 233.684099,88.2190318 233.894471,88.3692972 C233.503781,88.0687663 233.083037,87.7682354 232.692347,87.4376514 C232.992878,87.5278107 233.383568,87.9786071 233.623993,88.1889787 C234.916276,89.2408369 236.1184,90.3528012 237.29047,91.5248718 C238.402434,92.6368361 239.484346,93.8389597 240.506151,95.0410834 C240.746576,95.3416143 241.017053,95.6721983 241.257478,95.9727292 C241.85854,96.7240564 239.754824,93.929119 240.806682,95.4017205 C241.257478,96.0628885 241.738328,96.6940034 242.189124,97.3551713 C244.022362,100.090003 245.55507,102.975099 246.847353,105.980408 C246.546822,105.259134 246.246291,104.53786 245.94576,103.816586 C247.688839,107.993965 248.86091,112.351664 249.461972,116.829574 C249.341759,116.018141 249.2516,115.23676 249.131388,114.425327 C249.401866,116.739415 249.522078,118.993397 249.552131,121.247378 C249.582184,125.965714 253.699458,130.473677 258.568058,130.263306 C263.436659,130.052934 267.614039,126.296298 267.584147,121.247378 C267.493826,98.2868172 253.849723,76.0775832 232.662294,66.7010189 C226.050614,63.7858691 219.49904,62.0728429 212.286299,61.3515688 C215.291608,64.3568778 218.296917,67.3621869 221.302226,70.367496 C220.550899,64.6874618 219.168456,59.4882772 216.403572,54.4093048 C214.14959,50.2018721 211.024069,46.2649173 207.387645,43.1694489 C199.303364,36.2572381 188.995153,32.2301239 178.296253,32.6508672 C171.053458,32.921345 163.960929,34.9950083 157.739939,38.7516446 C161.857213,39.8335559 165.974486,40.9154671 170.061706,41.9973784 C158.581426,17.2336317 133.126458,0.974909687 106.01857,0.0432638774 C80.3532308,-0.858328842 55.8299089,12.3950841 41.9153279,33.8529908 C34.1616305,45.8141209 30.1044633,60.2997106 30.344888,74.5448756 C31.8475426,71.9603098 33.320144,69.3456909 34.8227985,66.7611251 C14.3866969,75.9573708 1.01307157,96.8142157 0.0513726743,119.02345 C-0.730007682,137.265676 7.44443297,155.928645 21.6895979,167.438979 C28.9624459,173.299331 37.2570989,177.747189 46.4232915,179.790799 C51.1716798,180.87271 56.0703336,181.35356 60.9389343,181.35356 C66.1982252,181.35356 71.4875691,181.35356 76.74686,181.35356 C86.6343268,181.35356 96.5518467,181.35356 106.439314,181.35356 C118.400444,181.35356 130.361574,181.35356 142.322704,181.35356 C153.652719,181.35356 164.982734,181.35356 176.342802,181.35356 C184.397031,181.35356 192.481312,181.35356 200.53554,181.35356 C207.598017,181.35356 214.480174,181.323507 221.452491,179.70064 C242.459602,174.832039 259.680023,158.032361 265.420163,137.295729 C266.862711,132.096544 267.553932,126.626882 267.584147,121.247378 C267.614039,116.529043 263.406606,112.02108 258.568058,112.231451 C253.669405,112.441823 249.582184,116.198459 249.552131,121.247378 Z" id="Cloud-Copy"></path>
                    </g>
                </g>
            </g>
        </g>
    </g>
</svg>