<?xml version="1.0" encoding="UTF-8"?>
<svg width="347px" height="338px" viewBox="0 0 347 338" version="1.1" xmlns="http://www.w3.org/2000/svg" xmlns:xlink="http://www.w3.org/1999/xlink">
    <!-- Generator: Sketch 55.2 (78181) - https://sketchapp.com -->
    <title>Group</title>
    <desc>Created with Sketch.</desc>
    <g id="Page-1" stroke="none" stroke-width="1" fill="none" fill-rule="evenodd">
        <g id="Weather-Icons" transform="translate(-1249.000000, -1034.000000)" fill-rule="nonzero">
            <g id="Group" transform="translate(1249.000000, 1034.000000)">
                <g id="Broken-Clouds-Copy" fill="#000000">
                    <path d="M249.939961,181.010999 C249.939961,183.290581 249.789462,185.570163 249.488464,187.849745 C249.608863,187.039894 249.699162,186.260037 249.819562,185.450185 C249.217566,189.859377 248.043674,194.118596 246.358085,198.257837 C246.659083,197.537969 246.960081,196.818101 247.261079,196.098233 C245.996888,199.097683 244.461798,201.977155 242.65581,204.67666 C242.234413,205.306545 241.782916,205.936429 241.331419,206.566314 C240.940122,207.106215 239.826429,208.186017 241.632417,206.20638 C241.361519,206.47633 241.15082,206.80627 240.910022,207.106215 C239.886629,208.335989 238.803036,209.535769 237.659244,210.67556 C236.575651,211.755362 235.431859,212.80517 234.257967,213.794988 C234.197767,213.824983 233.204474,214.694823 233.174374,214.664829 C233.174374,214.664829 235.160961,213.165104 233.716171,214.244906 C233.084075,214.694823 232.451979,215.144741 231.819884,215.564664 C229.050702,217.424323 226.100922,218.984037 223.000643,220.303795 C223.723038,220.00385 224.445433,219.703905 225.167829,219.40396 C221.044156,221.083652 216.739886,222.253437 212.315216,222.853327 C213.12791,222.733349 213.910505,222.643366 214.723199,222.523388 C208.131344,223.363234 201.238491,222.973305 194.616535,222.973305 C182.576617,222.973305 170.536698,222.973305 158.46668,222.973305 C143.68768,222.973305 128.90868,222.973305 114.12968,222.973305 C101.547965,222.973305 88.9361508,222.973305 76.354436,222.973305 C70.9966722,222.973305 65.6389085,223.0033 60.2811448,222.973305 C57.9032609,222.973305 55.5554768,222.793338 53.2076927,222.493393 C54.0203872,222.613371 54.8029819,222.703355 55.6156764,222.823333 C51.1910063,222.193448 46.8867355,221.023663 42.7630634,219.313976 C43.4854585,219.613921 44.2078536,219.913866 44.9302487,220.213811 C41.9503689,218.954042 39.0908882,217.424323 36.4120064,215.624653 C35.6896113,215.144741 35.0274157,214.664829 34.3351204,214.154922 C33.1311286,213.285082 36.1411082,215.594658 34.9070166,214.60484 C34.6060186,214.364884 34.3050206,214.124928 34.0040227,213.854977 C32.8000308,212.865159 31.6261388,211.785357 30.5124463,210.67556 C29.3987538,209.565764 28.345261,208.395978 27.3218679,207.196198 C27.0810695,206.896253 26.8402712,206.596308 26.569373,206.296363 C25.5459799,205.066589 27.9539636,208.186017 27.0208699,206.866259 C26.569373,206.236374 26.0877763,205.60649 25.6663791,204.946611 C23.8302915,202.217111 22.2350023,199.307645 20.9407111,196.2782 C21.2417091,196.998068 21.542707,197.717936 21.843705,198.437804 C20.1280166,194.328557 18.9240248,190.039344 18.3220288,185.630152 C18.442428,186.440004 18.5327274,187.219861 18.6531266,188.029712 C18.0210309,183.410559 18.0210309,178.761412 18.6230268,174.142259 C18.5026276,174.95211 18.4123282,175.731967 18.291929,176.541819 C18.893925,172.132627 20.067817,167.843414 21.7534056,163.734167 C21.4524076,164.454035 21.1514097,165.173903 20.8504117,165.893771 C22.0243038,163.104283 23.4389942,160.434772 25.094483,157.88524 C25.4857803,157.315344 25.8469779,156.715454 26.268375,156.175553 C26.5392732,155.785625 26.8101714,155.425691 27.0810695,155.065757 C27.8636642,153.985955 26.5091734,155.785625 26.5091734,155.785625 C26.3887742,155.665647 29.2482549,152.606208 29.5492528,152.306263 C30.6328455,151.166472 31.7465379,150.08667 32.92043,149.066857 C33.5525257,148.496961 34.2147212,147.987054 34.8769168,147.447153 C35.6896113,146.75728 32.9806296,148.8269 34.4555196,147.777093 C34.7264178,147.567131 34.9973159,147.387164 35.2682141,147.177203 C38.0373954,145.197566 41.0172752,143.547868 44.1175542,142.168121 C46.8867355,140.908352 48.6325236,137.279018 48.6024238,134.399546 C48.5422242,131.100151 48.7529228,127.83075 49.17432,124.56135 C49.0539208,125.371201 48.9636214,126.151058 48.8432222,126.96091 C49.6258169,121.351938 51.1308067,115.892939 53.3280918,110.673896 C53.0270939,111.393764 52.7260959,112.113632 52.425098,112.8335 C54.0203872,109.084188 55.9768739,105.484848 58.2644584,102.065474 C58.8363546,101.195634 59.4684503,100.325793 60.0704462,99.4859475 C61.3948372,97.7162719 58.9266539,100.925683 59.8597476,99.755898 C60.1908454,99.335975 60.5219431,98.9460465 60.8530409,98.5261235 C62.1172323,97.0263984 63.4416234,95.5866624 64.826214,94.1769209 C66.2108046,92.7971739 67.6555949,91.4774159 69.1906845,90.2176469 C69.5819818,89.8877074 70.003379,89.5577679 70.4247761,89.2278283 C71.5986682,88.2979988 68.37799,90.7575479 70.1538779,89.4377899 C70.9966722,88.8079053 71.8695663,88.2080153 72.7424604,87.6381198 C76.1437374,85.3585378 79.7557129,83.4388898 83.5482873,81.8191868 C82.8258922,82.1191318 82.103497,82.4190768 81.3811019,82.7190218 C86.6184665,80.5294233 92.0966294,79.0296982 97.7252913,78.2498412 C96.9125968,78.3698192 96.1300021,78.4598027 95.3173076,78.5797807 C101.066369,77.8299182 106.84553,77.7999237 112.594591,78.5497862 C111.781896,78.4298082 110.999301,78.3398247 110.186607,78.2198467 C115.815269,78.9697092 121.293432,80.4694343 126.560896,82.6290383 C125.838501,82.3290933 125.116106,82.0291483 124.393711,81.7292033 C128.065886,83.2889173 131.587562,85.1485763 134.928639,87.3081803 C135.741334,87.8480813 136.584128,88.4179768 137.366723,88.9878723 C137.697821,89.2278283 138.059018,89.4977789 138.390116,89.7377349 C139.624208,90.6375699 136.463729,88.2080153 138.239617,89.6177569 C139.714507,90.8175369 141.159297,92.0773059 142.513788,93.3970639 C143.868279,94.7168219 145.19267,96.0965689 146.426762,97.5363049 C147.088957,98.2861674 147.690953,99.03603 148.323049,99.815887 C149.346442,101.075656 146.878259,97.9262334 148.08225,99.515942 C148.383248,99.9058705 148.654147,100.295799 148.955144,100.715722 C151.242729,103.955128 153.229316,107.404496 154.914904,111.003836 C155.787798,112.863495 158.346281,114.693159 160.302768,115.143077 C162.650552,115.682978 165.148835,115.503011 167.255821,114.243242 C168.670511,113.373401 170.145401,112.623539 171.650391,111.96366 C170.927996,112.263605 170.205601,112.56355 169.483206,112.863495 C172.131988,111.753698 174.901169,111.003836 177.73055,110.553918 C176.917855,110.673896 176.13526,110.76388 175.322566,110.883858 C178.302446,110.493929 181.282326,110.463935 184.232106,110.823869 C183.419411,110.703891 182.636816,110.613907 181.824122,110.493929 C184.834102,110.883858 187.723682,111.693709 190.522963,112.863495 C189.800568,112.56355 189.078173,112.263605 188.355778,111.96366 C190.191865,112.773511 191.967753,113.703341 193.653342,114.813137 C194.104839,115.113082 194.526236,115.413027 194.977733,115.742967 C196.211825,116.612807 193.021246,114.153258 194.706835,115.563 C195.45933,116.192884 196.211825,116.882758 196.90412,117.572631 C197.596415,118.262505 198.288711,119.012367 198.920806,119.76223 C200.335497,121.471916 197.867313,118.292499 198.740207,119.522274 C199.011106,119.912202 199.282004,120.272136 199.552902,120.662065 C200.726794,122.371751 201.689987,124.201416 202.532782,126.121064 C202.231784,125.401196 201.930786,124.681328 201.629788,123.96146 C202.74348,126.63097 203.526075,129.36047 203.917372,132.209947 C203.796973,131.400096 203.706674,130.620239 203.586275,129.810387 C203.616374,129.96036 203.616374,130.080338 203.646474,130.23031 C203.977572,132.599876 204.398969,134.879458 206.295256,136.589144 C208.161444,138.298831 210.17813,138.988704 212.676413,139.22866 C213.368708,139.288649 214.061004,139.378633 214.753299,139.468616 C213.940605,139.348638 213.15801,139.258655 212.345315,139.138677 C216.830185,139.768561 221.194655,140.938347 225.378527,142.678028 C224.656132,142.378083 223.933737,142.078138 223.211342,141.778193 C226.161122,143.037962 229.020602,144.537687 231.669385,146.337357 C232.33158,146.787274 232.993776,147.237192 233.625871,147.717104 C233.83657,147.867076 234.047268,148.047043 234.257967,148.197016 C233.86667,147.897071 233.445273,147.597126 233.053975,147.267186 C233.354973,147.35717 233.74627,147.807087 233.987069,148.017049 C235.28136,149.066857 236.485352,150.176653 237.659244,151.346439 C238.772936,152.456235 239.856529,153.656015 240.879922,154.855795 C241.120721,155.15574 241.391619,155.48568 241.632417,155.785625 C242.234413,156.535487 240.127427,153.745999 241.18092,155.215729 C241.632417,155.875608 242.114014,156.505493 242.565511,157.165372 C244.401598,159.894871 245.936688,162.774343 247.230979,165.773793 C246.929981,165.053925 246.628983,164.334057 246.327985,163.614189 C248.073773,167.783425 249.247666,172.132627 249.849661,176.601808 C249.729262,175.791956 249.638963,175.012099 249.518564,174.202248 C249.789462,176.511824 249.909861,178.761412 249.939961,181.010999 C249.970061,185.720136 254.093733,190.219311 258.9699,190.009349 C263.846067,189.799388 268.029938,186.050075 268,181.010999 C267.909539,158.095201 254.244232,135.929265 233.023875,126.570981 C226.40192,123.661515 219.840165,121.951828 212.616214,121.23196 C215.626193,124.23141 218.636173,127.23086 221.646152,130.23031 C220.893657,124.56135 219.509067,119.372301 216.739886,114.303231 C214.482401,110.104001 211.352022,106.174721 207.709947,103.085287 C199.613102,96.1865524 189.288871,92.1672894 178.573344,92.5872124 C171.319293,92.8571629 164.215741,94.9267834 157.985083,98.676096 C162.108755,99.755898 166.232428,100.8357 170.326,101.915502 C158.827878,77.2000337 133.33335,60.973009 106.183334,60.0431795 C80.4781081,59.1433445 55.9166743,72.3709192 41.9804687,93.7869924 C34.2147212,105.724804 30.1512487,120.182153 30.3920471,134.399546 C31.8970369,131.820019 33.3719269,129.210497 34.8769168,126.63097 C14.4090553,135.809287 1.01464599,156.625471 0.0514525128,178.791406 C-0.731142189,196.998068 7.45600239,215.624653 21.7233058,227.112546 C29.0074565,232.961474 37.3150003,237.40066 46.4954381,239.440286 C51.2512059,240.520088 56.1574727,241 61.0336397,241 C66.301104,241 71.5986682,241 76.8661325,241 C86.7689655,241 96.7018982,241 106.604731,241 C118.58445,241 130.564169,241 142.543888,241 C153.891511,241 165.239134,241 176.616857,241 C184.683603,241 192.780448,241 200.847193,241 C207.920645,241 214.813499,240.970005 221.796651,239.350302 C242.836409,234.491193 260.083592,217.724268 265.832653,197.028063 C267.277443,191.839014 267.969739,186.380015 268,181.010999 C268.029938,176.301863 263.815967,171.802688 258.9699,172.012649 C254.063633,172.222611 249.970061,175.971923 249.939961,181.010999 Z" id="Cloud-Copy-3"></path>
                    <path d="M113.61807,70 C113.55787,66.700605 127.370992,67.8307503 127.792389,64.5613497 C127.67199,65.3712012 127.581691,66.1510583 127.461292,66.9609098 C128.243886,61.3519382 129.748876,55.8929391 131.946161,50.6738961 C131.645163,51.3937641 131.344165,52.1136321 131.043167,52.8335001 C132.638457,49.0841876 134.594943,45.4848475 136.882528,42.0654745 C137.454424,41.195634 138.08652,40.3257935 138.688516,39.4859475 C140.012907,37.7162719 137.544723,40.9256835 138.477817,39.755898 C138.808915,39.335975 139.140013,38.9460465 139.47111,38.5261235 C140.735302,37.0263984 142.059693,35.5866624 143.444284,34.1769209 C144.828874,32.7971739 146.273664,31.4774159 147.808754,30.2176469 C148.200051,29.8877074 148.621448,29.5577679 149.042846,29.2278283 C150.216738,28.2979988 146.996059,30.7575479 148.771947,29.4377899 C149.614742,28.8079053 150.487636,28.2080153 151.36053,27.6381198 C154.761807,25.3585378 158.373782,23.4388898 162.166357,21.8191868 C161.443962,22.1191318 160.721567,22.4190768 159.999171,22.7190218 C165.236536,20.5294233 170.714699,19.0296982 176.343361,18.2498412 C175.530666,18.3698192 174.748072,18.4598027 173.935377,18.5797807 C179.684438,17.8299182 185.463599,17.7999237 191.21266,18.5497862 C190.399966,18.4298082 189.617371,18.3398247 188.804676,18.2198467 C194.433338,18.9697092 199.911501,20.4694343 205.178966,22.6290383 C204.456571,22.3290933 203.734175,22.0291483 203.01178,21.7292033 C206.683955,23.2889173 210.205632,25.1485763 213.546709,27.3081803 C214.359403,27.8480813 215.202198,28.4179768 215.984792,28.9878723 C216.31589,29.2278283 216.677088,29.4977789 217.008186,29.7377349 C218.242277,30.6375699 215.081799,28.2080153 216.857687,29.6177569 C218.332577,30.8175369 219.777367,32.0773059 221.131858,33.3970639 C222.486348,34.7168219 223.810739,36.0965689 225.044831,37.5363049 C225.707027,38.2861674 226.309023,39.03603 226.941118,39.815887 C227.964511,41.075656 225.496328,37.9262334 226.70032,39.515942 C227.001318,39.9058705 227.272216,40.295799 227.573214,40.715722 C229.860799,43.955128 231.847385,47.4044955 233.532974,51.0038356 C234.405868,52.8634946 236.96435,54.6931591 238.920837,55.1430766 C241.268621,55.6829776 243.766904,55.5030106 245.87389,54.2432416 C247.288581,53.3734011 248.763471,52.6235386 250.26846,51.9636596 C249.546065,52.2636046 248.82367,52.5635496 248.101275,52.8634946 C250.750057,51.7536981 253.519238,51.0038356 256.348619,50.5539181 C255.535925,50.6738961 254.75333,50.7638796 253.940636,50.8838576 C256.920515,50.4939291 259.900395,50.4639346 262.850175,50.8238686 C262.037481,50.7038906 261.254886,50.6139071 260.442191,50.4939291 C263.452171,50.8838576 266.341752,51.6937091 269.141033,52.8634946 C268.418637,52.5635496 267.696242,52.2636046 266.973847,51.9636596 C268.809935,52.7735111 270.585823,53.7033406 272.271411,54.8131371 C272.722908,55.1130821 273.144306,55.4130271 273.595802,55.7429666 C274.829894,56.6128071 271.639316,54.1532581 273.324904,55.5629996 C274.077399,56.1928841 274.829894,56.8827577 275.522189,57.5726312 C276.214485,58.2625047 276.90678,59.0123672 277.538876,59.7622297 C278.953566,61.4719162 276.485383,58.2924992 277.358277,59.5222737 C277.629175,59.9122022 277.900073,60.2721362 278.170971,60.6620647 C279.344864,62.3717512 280.308057,64.2014157 281.150851,66.1210638 C280.849853,65.4011957 280.548855,64.6813277 280.247857,63.9614597 C281.36155,66.6309703 282.144145,69.3604698 282.535442,72.2099473 C282.415043,71.4000958 282.324743,70.6202388 282.204344,69.8103873 C282.234444,69.9603598 282.234444,70.0803378 282.264544,70.2303103 C282.595642,72.5998758 283.017039,74.8794578 284.913326,76.5891444 C286.779513,78.2988309 288.7962,78.9887044 291.294483,79.2286604 C291.986778,79.2886494 292.679073,79.3786329 293.371369,79.4686164 C292.558674,79.3486384 291.776079,79.2586549 290.963385,79.1386769 C295.448255,79.7685614 299.812725,80.9383469 303.996597,82.6780279 C303.274202,82.3780829 302.551806,82.0781379 301.829411,81.7781929 C304.779191,83.0379619 307.638672,84.537687 310.287454,86.337357 C310.94965,86.7872745 311.611845,87.237192 312.243941,87.717104 C312.454639,87.8670765 312.665338,88.0470435 312.876037,88.197016 C312.484739,87.897071 312.063342,87.597126 311.672045,87.2671865 C311.973043,87.35717 312.36434,87.8070875 312.605138,88.017049 C313.89943,89.0668565 315.103421,90.176653 316.277314,91.3464385 C317.391006,92.456235 318.474599,93.6560151 319.497992,94.8557951 C319.73879,95.1557401 320.009688,95.4856796 320.250487,95.7856246 C320.852483,96.5354871 318.745497,93.7459986 319.79899,95.2157291 C320.250487,95.8756081 320.732083,96.5054926 321.18358,97.1653716 C323.019668,99.8948711 324.554757,102.774343 325.849049,105.773793 C325.548051,105.053925 325.247053,104.334057 324.946055,103.614189 C326.691843,107.783425 327.865735,112.132627 328.467731,116.601808 C328.347332,115.791956 328.257032,115.012099 328.136633,114.202248 C328.407531,116.511824 328.527931,118.761412 328.55803,121.010999 C328.58813,125.720136 332.711802,130.219311 337.587969,130.009349 C342.464136,129.799388 346.648008,126.050075 346.618387,121.010999 C346.527609,98.0952011 332.862301,75.9292654 311.641945,66.5709813 C305.01999,63.6615147 298.458234,61.9518282 291.234283,61.2319602 C294.244263,64.2314102 297.254242,67.2308603 300.264222,70.2303103 C299.511727,64.5613497 298.127136,59.3723012 295.357955,54.3032306 C293.10047,50.1040006 289.970092,46.174721 286.328016,43.0852875 C278.231171,36.1865524 267.906941,32.1672894 257.191414,32.5872124 C249.937363,32.8571629 242.833811,34.9267834 236.603153,38.676096 C240.726825,39.755898 244.850497,40.8357 248.944069,41.915502 C237.445947,17.2000337 211.95142,0.973009042 184.801404,0.0431795318 C159.096178,-0.856655478 134.534744,12.3709192 120.598538,33.7869924 C112.832791,45.7248035 108.769318,60.1821527 109.010117,74.3995458 C110.515106,71.8200188 111.989996,69.2104973 113.494986,66.6309703 C104.539109,70.6470165 134.4488,82.9216471 170.61807,101 C178.672745,105.025939 190.78016,103.70676 198.61807,109 C199.87259,109.847226 204.386576,111.10702 205.61807,112 C224.372739,125.599383 243.332176,138.579895 253.61807,153 C262.793858,165.863815 264.279338,181 264.96719,181 C269.80206,181 274.639048,181 279.465263,181 C286.538715,181 293.431568,180.970005 300.414721,179.350302 C321.454478,174.491193 338.701662,157.724268 344.450723,137.028063 C345.895513,131.839014 346.587808,126.380015 346.618387,121.010999 C346.648008,116.301863 342.434036,111.802688 337.587969,112.012649 C332.681702,112.222611 328.58813,115.971923 328.55803,121.010999 C328.55803,123.290581 328.407531,125.570163 328.106533,127.849745 C328.226933,127.039894 328.317232,126.260037 328.437631,125.450185 C327.835635,129.859377 326.661743,134.118596 324.976155,138.257837 C325.277153,137.537969 325.578151,136.818101 325.879149,136.098233 C324.614957,139.097683 323.079867,141.977155 321.27388,144.67666 C320.852483,145.306545 320.400986,145.936429 319.949489,146.566314 C319.558191,147.106215 318.444499,148.186017 320.250487,146.20638 C319.979588,146.47633 319.76889,146.80627 319.528092,147.106215 C318.504698,148.335989 317.421106,149.535769 316.277314,150.67556 C315.193721,151.755362 314.049929,152.80517 312.876037,153.794988 C312.815837,153.824983 311.822544,154.694823 311.792444,154.664829 C311.792444,154.664829 313.77903,153.165104 312.33424,154.244906 C311.702144,154.694823 311.070049,155.144741 310.437953,155.564664 C307.668772,157.424323 304.718992,158.984037 301.618713,160.303795 C302.341108,160.00385 303.063503,159.703905 303.785898,159.40396 C299.662226,161.083652 295.357955,162.253437 290.933285,162.853327 C291.74598,162.733349 292.528574,162.643366 293.341269,162.523388 C286.749413,163.363234 279.85656,162.973305 273.234605,162.973305 C269.790517,162.973305 266.34643,162.973305 262.901638,162.973305 C255.225362,162.973305 203,112 199,112" id="Path"></path>
                </g>
                <path d="M142.406899,260.049055 L162.494229,260.049055 L148.322356,336.296017 C148.197757,336.966372 148.552423,337.633675 149.170881,337.89251 C149.789338,338.151345 150.500827,337.930246 150.873086,337.363541 L205.761607,253.801256 C206.050955,253.360815 206.078949,252.793441 205.834416,252.325553 C205.589884,251.857665 205.112636,251.565438 204.593127,251.565488 L187.042626,251.565488 L205.895864,203.974561 C206.071226,203.531892 206.01959,203.029204 205.758091,202.633295 C205.496592,202.237385 205.05943,202 204.591661,202 L158.43765,202 C157.814677,202 157.265868,202.418171 157.088813,203.027871 L141.058062,258.204545 C140.931857,258.639021 141.013937,259.108814 141.2795,259.471966 C141.545063,259.835119 141.962954,260.049027 142.406899,260.049055 Z" id="Thunder-Copy" fill="#FFE963"></path>
                <path d="M63.4068989,216.049055 L83.4942286,216.049055 L69.3223565,292.296017 C69.1977567,292.966372 69.5524235,293.633675 70.170881,293.89251 C70.7893385,294.151345 71.5008272,293.930246 71.8730862,293.363541 L126.761607,209.801256 C127.050955,209.360815 127.078949,208.793441 126.834416,208.325553 C126.589884,207.857665 126.112636,207.565438 125.593127,207.565488 L108.042626,207.565488 L126.895864,159.974561 C127.071226,159.531892 127.01959,159.029204 126.758091,158.633295 C126.496592,158.237385 126.05943,158 125.591661,158 L79.4376505,158 C78.814677,158 78.2658683,158.418171 78.0888133,159.027871 L62.0580618,214.204545 C61.9318571,214.639021 62.0139374,215.108814 62.2795004,215.471966 C62.5450634,215.835119 62.9629544,216.049027 63.4068989,216.049055 Z" id="Thunder-Copy-2" fill="#FFE963"></path>
            </g>
        </g>
    </g>
</svg>