<?xml version="1.0" encoding="UTF-8"?>
<svg width="322px" height="347px" viewBox="0 0 322 347" version="1.1" xmlns="http://www.w3.org/2000/svg" xmlns:xlink="http://www.w3.org/1999/xlink">
    <!-- Generator: Sketch 55.2 (78181) - https://sketchapp.com -->
    <title>mist night</title>
    <desc>Created with Sketch.</desc>
    <g id="Page-1" stroke="none" stroke-width="1" fill="none" fill-rule="evenodd">
        <g id="Weather-Icons" transform="translate(-579.000000, -58.000000)" fill-rule="nonzero">
            <g id="mist-night" transform="translate(579.000000, 58.000000)">
                <g id="few-Clouds-Night-Copy">
                    <g id="Night" transform="translate(101.000000, 0.000000)">
                        <path d="M143.277165,174.659127 C92.6668234,174.659127 51.3231637,133.301202 51.3231637,82.6733963 C51.3231637,68.649732 54.4120578,55.101446 60.8274533,42.2662278 C62.0154895,39.8893355 61.540275,37.274754 59.6394171,35.6109295 C57.7385592,33.9471049 55.1248795,33.4717264 52.9864144,34.6601725 C20.4342226,52.7245538 0,86.9518024 0,124.031322 C0,129.699548 2.37069022,136.483013 6.41160986,143.821901 C6.79159577,144.51201 17.7947522,140.075026 23,146 C29.1842555,153.039349 39.0959433,145.644685 47,157 C52.7681509,165.286779 51.9333303,173.130967 63,175 C63.8337268,175.140807 62.0517043,178 63,178 C64.2528054,178 67.0955191,175.288394 68,175 C72.8712341,173.446806 76.5807911,173.956069 80,173 C87.022291,171.036448 92.9303532,176.097219 96,178 C100.79071,180.969617 114.462753,201 117,201 C117.913925,201 125.049576,205.052985 132,210 C134.808292,211.998822 136.28607,220.125033 139.323653,218.930329 C161.138499,210.350387 179.677406,194.340081 191.273828,172.995302 C192.461864,170.856099 192.224257,168.003829 190.323399,166.340004 C188.660148,164.43849 157.295992,174.659127 143.277165,174.659127 Z" id="Path" stroke="#000000" stroke-width="8" fill="#FFE963"></path>
                        <path d="M103.559751,108.826736 C104.74125,109.769458 105.21385,111.183542 104.74125,112.597625 L100.960453,128.152545 C100.251554,131.452073 103.796051,134.28024 106.867949,132.394796 L120.573338,124.145975 C121.754837,123.438933 123.408936,123.438933 124.590435,124.145975 L138.295824,132.394796 C141.367722,134.28024 144.912219,131.452073 144.20332,128.152545 L140.422523,112.597625 C140.186223,111.183542 140.658823,109.769458 141.604022,108.826736 L153.655312,98.4567895 C156.25461,96.0999836 154.836812,91.8577328 151.528614,91.6220522 L135.696526,90.4436492 C134.278727,90.2079687 132.860929,89.5009269 132.388329,88.0868433 L126.244534,73.4746463 C124.826735,70.1751179 120.337038,70.1751179 119.155539,73.4746463 L113.011744,88.0868433 C112.539144,89.5009269 111.121345,90.4436492 109.703546,90.4436492 L93.6351588,91.6220522 C90.0906616,91.8577328 88.6728627,96.0999836 91.5084605,98.4567895 L103.559751,108.826736 Z" id="Path" fill="#000000"></path>
                        <path d="M121.877439,31.2558662 C122.831488,31.970286 123.07,33.1609856 122.831488,34.3516853 L119.730827,46.9731018 C119.01529,49.8307809 122.115951,51.9740403 124.501075,50.5452007 L135.711157,43.6391427 C136.665207,42.9247229 138.096281,42.9247229 139.050331,43.6391427 L150.260413,50.5452007 C152.645537,51.9740403 155.746198,49.8307809 155.030661,46.9731018 L151.93,34.3516853 C151.691487,33.1609856 152.168512,31.970286 152.884049,31.2558662 L162.901569,22.6828286 C165.048181,20.7777091 163.855619,17.2056101 160.99347,17.2056101 L148.352314,16.0149105 C147.159752,16.0149105 146.205702,15.0623508 145.728677,14.109791 L140.719917,1.96465445 C139.527355,-0.654884815 135.949669,-0.654884815 134.757108,1.96465445 L129.748347,14.109791 C129.271323,15.3004907 128.317273,16.0149105 127.124711,16.0149105 L114.00653,16.9674702 C111.144381,17.2056101 109.951819,20.7777091 112.098431,22.4446887 L121.877439,31.2558662 Z" id="Path" fill="#000000"></path>
                        <path d="M219.90649,73.2120309 C222.043485,71.3266596 220.856266,67.7915884 218.00694,67.7915884 L204.947529,66.8489027 C203.76031,66.8489027 202.810534,65.906217 202.335647,64.9635314 L197.349326,52.9442892 C196.162107,50.3519036 192.600449,50.3519036 191.41323,52.9442892 L186.664353,64.72786 C186.189466,65.906217 185.23969,66.6132313 184.052471,66.6132313 L170.99306,67.5559169 C168.143734,67.7915884 166.956515,71.3266596 169.09351,72.9763595 L179.066151,81.4605305 C180.015926,82.1675447 180.25337,83.3459018 180.015926,84.5242589 L176.929156,97.0148439 C176.216825,99.8429009 179.303594,101.963944 181.678033,100.549915 L192.837893,93.7154441 C193.787668,93.0084298 195.212332,93.0084298 196.162107,93.7154441 L207.321967,100.549915 C209.696406,101.963944 212.783175,99.8429009 212.070844,97.0148439 L208.984074,84.5242589 C208.74663,83.3459018 209.221518,82.1675447 209.933849,81.4605305 L219.90649,73.2120309 Z" id="Path" fill="#000000"></path>
                    </g>
                    <path d="M249.552131,253.247378 C249.552131,255.531413 249.401866,257.815448 249.101335,260.099483 C249.221547,259.28805 249.311706,258.506669 249.431919,257.695236 C248.830857,262.11304 247.658786,266.380579 245.975813,270.527906 C246.276344,269.806631 246.576875,269.085357 246.877406,268.364083 C245.615176,271.369392 244.082469,274.254489 242.279283,276.959267 C241.85854,277.590382 241.407744,278.221497 240.956947,278.852612 C240.566257,279.393567 239.454293,280.475479 241.257478,278.491975 C240.987,278.762452 240.776629,279.093036 240.536204,279.393567 C239.514399,280.625744 238.432488,281.827868 237.29047,282.969885 C236.208559,284.051796 235.066541,285.103654 233.894471,286.095406 C233.834365,286.12546 232.842613,286.996999 232.81256,286.966946 C232.81256,286.966946 234.796064,285.464292 233.353515,286.546203 C232.7224,286.996999 232.091285,287.447796 231.460171,287.868539 C228.695286,289.73183 225.750083,291.294591 222.654615,292.616927 C223.375889,292.316396 224.097163,292.015865 224.818438,291.715334 C220.701164,293.398307 216.403572,294.570378 211.985768,295.17144 C212.797201,295.051227 213.578582,294.961068 214.390015,294.840856 C207.808388,295.682342 200.92623,295.291652 194.314551,295.291652 C182.293314,295.291652 170.272078,295.291652 158.220789,295.291652 C143.464721,295.291652 128.708654,295.291652 113.952586,295.291652 C101.390394,295.291652 88.7981493,295.291652 76.2359574,295.291652 C70.8865073,295.291652 65.5370572,295.321705 60.187607,295.291652 C57.8134129,295.291652 55.4692718,295.111334 53.1251307,294.810803 C53.9365642,294.931015 54.7179445,295.021174 55.529378,295.141387 C51.1115737,294.510272 46.8139817,293.338201 42.6967083,291.625175 C43.4179825,291.925706 44.1392566,292.226237 44.8605308,292.526768 C41.8852748,291.264538 39.0302312,289.73183 36.3555062,287.928645 C35.634232,287.447796 34.973064,286.966946 34.2818429,286.456044 C33.0797193,285.584504 36.0850283,287.898592 34.8528516,286.90684 C34.5523207,286.666415 34.2517898,286.42599 33.9512589,286.155513 C32.7491353,285.163761 31.5770647,284.081849 30.4651004,282.969885 C29.353136,281.857921 28.3012779,280.68585 27.2794728,279.483727 C27.0390481,279.183196 26.7986233,278.882665 26.5281455,278.582134 C25.5063404,277.349957 27.9105877,280.475479 26.9789419,279.153143 C26.5281455,278.522028 26.0472961,277.890913 25.6265528,277.229745 C23.7933143,274.494913 22.2005005,271.579764 20.9082176,268.544402 C21.2087485,269.265676 21.5092794,269.98695 21.8098103,270.708224 C20.0967841,266.590951 18.8946605,262.293359 18.2935987,257.875554 C18.4138111,258.686988 18.5039703,259.468368 18.6241827,260.279802 C17.9930678,255.651626 17.9930678,250.993397 18.5941296,246.365221 C18.4739172,247.176654 18.383758,247.958034 18.2635456,248.769468 C18.8646074,244.351664 20.0366779,240.054072 21.719651,235.936798 C21.4191201,236.658072 21.1185892,237.379347 20.8180583,238.100621 C21.9901288,235.305683 23.4026241,232.630958 25.0555441,230.076446 C25.4462343,229.505437 25.8068713,228.904375 26.2276146,228.363419 C26.4980924,227.972729 26.7685702,227.612092 27.0390481,227.251455 C27.8204284,226.169544 26.4680393,227.972729 26.4680393,227.972729 C26.347827,227.852517 29.2028706,224.787102 29.5034015,224.486571 C30.5853128,223.344553 31.6972771,222.262642 32.8693476,221.240837 C33.5004625,220.669828 34.1616305,220.158926 34.8227985,219.61797 C35.634232,218.926749 32.9294538,221.000412 34.4020553,219.948554 C34.6725331,219.738182 34.9430109,219.557864 35.2134887,219.347492 C37.9783731,217.363988 40.953629,215.711068 44.0490974,214.328626 C46.8139817,213.066396 48.557061,209.429972 48.5270079,206.544876 C48.4669017,203.239036 48.6772733,199.963249 49.0980166,196.687462 C48.9778042,197.498895 48.887645,198.280276 48.7674326,199.091709 C49.5488129,193.471781 51.0514675,188.002119 53.2453431,182.772881 C52.9448122,183.494155 52.6442813,184.215429 52.3437504,184.936703 C53.9365642,181.180067 55.8900151,177.573696 58.17405,174.147644 C58.7450587,173.276104 59.3761736,172.404565 59.9772354,171.563078 C61.2995714,169.789946 58.835218,173.005626 59.7668638,171.833556 C60.0974478,171.412813 60.4280318,171.022122 60.7586158,170.601379 C62.0208456,169.098725 63.3431815,167.656176 64.7256237,166.243681 C66.1080659,164.861239 67.5506142,163.538903 69.0833219,162.276673 C69.474012,161.946089 69.8947553,161.615505 70.3154986,161.284921 C71.4875691,160.353275 68.2718884,162.817629 70.0450208,161.495293 C70.8865073,160.864178 71.7580469,160.263116 72.6295866,159.692107 C76.0255858,157.408072 79.6319567,155.484675 83.4186461,153.861808 C82.6973719,154.162339 81.9760977,154.462869 81.2548236,154.7634 C86.4840613,152.569525 91.9537238,151.06687 97.5736518,150.28549 C96.7622183,150.405702 95.980838,150.495862 95.1694045,150.616074 C100.909545,149.864747 106.679738,149.834694 112.419879,150.586021 C111.608445,150.465808 110.827065,150.375649 110.015631,150.255437 C115.635559,151.006764 121.105222,152.509419 126.364513,154.673241 C125.643238,154.37271 124.921964,154.072179 124.20069,153.771648 C127.867167,155.334409 131.383379,157.197701 134.719272,159.361523 C135.530705,159.902479 136.372192,160.473488 137.153572,161.044496 C137.484156,161.284921 137.844793,161.555399 138.175377,161.795824 C139.407554,162.697416 136.251979,160.263116 138.025112,161.675611 C139.497713,162.877735 140.940262,164.139965 142.292651,165.462301 C143.64504,166.784637 144.967376,168.167079 146.199552,169.609627 C146.86072,170.360954 147.461782,171.112282 148.092897,171.893662 C149.114702,173.155892 146.650349,170.000317 147.852472,171.593131 C148.153003,171.983821 148.423481,172.374512 148.724012,172.795255 C151.008047,176.040989 152.991551,179.497094 154.674524,183.103465 C155.546064,184.966756 158.100576,186.799995 160.054027,187.250791 C162.398168,187.791747 164.892575,187.611428 166.996291,186.349199 C168.408786,185.477659 169.881388,184.726332 171.384042,184.065164 C170.662768,184.365695 169.941494,184.666226 169.22022,184.966756 C171.864892,183.854792 174.629776,183.103465 177.454767,182.652669 C176.643333,182.772881 175.861953,182.86304 175.050519,182.983253 C178.025775,182.592562 181.001031,182.562509 183.946234,182.923146 C183.134801,182.802934 182.35342,182.712775 181.541987,182.592562 C184.547296,182.983253 187.432393,183.794686 190.22733,184.966756 C189.506056,184.666226 188.784782,184.365695 188.063508,184.065164 C189.896746,184.876597 191.669879,185.808243 193.352852,186.920207 C193.803648,187.220738 194.224391,187.521269 194.675188,187.851853 C195.907364,188.723393 192.721737,186.259039 194.40471,187.671535 C195.156037,188.30265 195.907364,188.993871 196.598585,189.685092 C197.289807,190.376313 197.981028,191.12764 198.612142,191.878967 C200.024638,193.591993 197.560284,190.406366 198.431824,191.638543 C198.702302,192.029233 198.97278,192.38987 199.243257,192.78056 C200.415328,194.493586 201.377027,196.326825 202.218513,198.250223 C201.917982,197.528948 201.617452,196.807674 201.316921,196.0864 C202.428885,198.761125 203.210265,201.495956 203.600956,204.351 C203.480743,203.539566 203.390584,202.758186 203.270372,201.946753 C203.300425,202.097018 203.300425,202.217231 203.330478,202.367496 C203.661062,204.74169 204.081805,207.025725 205.97515,208.738751 C207.838441,210.451777 209.851998,211.142998 212.346405,211.383423 C213.037626,211.443529 213.728847,211.533689 214.420068,211.623848 C213.608635,211.503636 212.827254,211.413476 212.015821,211.293264 C216.493731,211.924379 220.85143,213.096449 225.028809,214.839529 C224.307535,214.538998 223.586261,214.238467 222.864987,213.937936 C225.81019,215.200166 228.665233,216.70282 231.309905,218.506006 C231.971073,218.956802 232.632241,219.407598 233.263356,219.888448 C233.473728,220.038713 233.684099,220.219032 233.894471,220.369297 C233.503781,220.068766 233.083037,219.768235 232.692347,219.437651 C232.992878,219.527811 233.383568,219.978607 233.623993,220.188979 C234.916276,221.240837 236.1184,222.352801 237.29047,223.524872 C238.402434,224.636836 239.484346,225.83896 240.506151,227.041083 C240.746576,227.341614 241.017053,227.672198 241.257478,227.972729 C241.85854,228.724056 239.754824,225.929119 240.806682,227.40172 C241.257478,228.062888 241.738328,228.694003 242.189124,229.355171 C244.022362,232.090003 245.55507,234.975099 246.847353,237.980408 C246.546822,237.259134 246.246291,236.53786 245.94576,235.816586 C247.688839,239.993965 248.86091,244.351664 249.461972,248.829574 C249.341759,248.018141 249.2516,247.23676 249.131388,246.425327 C249.401866,248.739415 249.522078,250.993397 249.552131,253.247378 C249.582184,257.965714 253.699458,262.473677 258.568058,262.263306 C263.436659,262.052934 267.614039,258.296298 267.584147,253.247378 C267.493826,230.286817 253.849723,208.077583 232.662294,198.701019 C226.050614,195.785869 219.49904,194.072843 212.286299,193.351569 C215.291608,196.356878 218.296917,199.362187 221.302226,202.367496 C220.550899,196.687462 219.168456,191.488277 216.403572,186.409305 C214.14959,182.201872 211.024069,178.264917 207.387645,175.169449 C199.303364,168.257238 188.995153,164.230124 178.296253,164.650867 C171.053458,164.921345 163.960929,166.995008 157.739939,170.751645 C161.857213,171.833556 165.974486,172.915467 170.061706,173.997378 C158.581426,149.233632 133.126458,132.97491 106.01857,132.043264 C80.3532308,131.141671 55.8299089,144.395084 41.9153279,165.852991 C34.1616305,177.814121 30.1044633,192.299711 30.344888,206.544876 C31.8475426,203.96031 33.320144,201.345691 34.8227985,198.761125 C14.3866969,207.957371 1.01307157,228.814216 0.0513726743,251.02345 C-0.730007682,269.265676 7.44443297,287.928645 21.6895979,299.438979 C28.9624459,305.299331 37.2570989,309.747189 46.4232915,311.790799 C51.1716798,312.87271 56.0703336,313.35356 60.9389343,313.35356 C66.1982252,313.35356 71.4875691,313.35356 76.74686,313.35356 C86.6343268,313.35356 96.5518467,313.35356 106.439314,313.35356 C118.400444,313.35356 130.361574,313.35356 142.322704,313.35356 C153.652719,313.35356 164.982734,313.35356 176.342802,313.35356 C184.397031,313.35356 192.481312,313.35356 200.53554,313.35356 C207.598017,313.35356 214.480174,313.323507 221.452491,311.70064 C242.459602,306.832039 259.680023,290.032361 265.420163,269.295729 C266.862711,264.096544 267.553932,258.626882 267.584147,253.247378 C267.614039,248.529043 263.406606,244.02108 258.568058,244.231451 C253.669405,244.441823 249.582184,248.198459 249.552131,253.247378 Z" id="Cloud-Copy-2" fill="#000000"></path>
                </g>
                <path d="M146,338 L85,338 L85,335 L146,335 L146,338 Z M183,335 L159,335 L159,338 L183,338 L183,335 Z M103,326 L79,326 L79,329 L103,329 L103,326 Z M189,326 L116,326 L116,329 L189,329 L189,326 Z M146,317 L85,317 L85,320 L146,320 L146,317 Z M183,317 L159,317 L159,320 L183,320 L183,317 Z M128,311 L171,311 L171,308 L128,308 L128,311 Z M98,311 L116,311 L116,308 L98,308 L98,311 Z M128,347 L171,347 L171,344 L128,344 L128,347 Z M98,347 L116,347 L116,344 L98,344 L98,347 Z" id="Shape" fill="#000000"></path>
            </g>
        </g>
    </g>
</svg>