<?xml version="1.0" encoding="UTF-8"?>
<svg width="316px" height="316px" viewBox="0 0 316 316" version="1.1" xmlns="http://www.w3.org/2000/svg" xmlns:xlink="http://www.w3.org/1999/xlink">


                <path d="M235.3,158 C235.04,189.93 215.03,219.69 184.69,230.59 C153.705388,241.684064 119.090544,232.213136 98.07,206.89 C77.55,182.06 75.19,145.75 91.69,118.23 C108.19,90.71 141.45,75.68 173.09,82.15 C209.084808,89.6557848 234.982976,121.232317 235.3,158 C235.38,167.65 250.38,167.67 250.300319,158 C249.962344,119.200327 225.686267,84.6447245 189.3,71.17 C153.22,57.88 110.78,69.65 86.63,99.51 C62.48,129.37 58.84,172.16 78.73,205.34 C98.73,238.73 138.3,255.96 176.41,248.45 C219.16,240 250,201.16 250.300319,158 C250.38,148.35 235.38,148.34 235.3,158 L235.3,158 Z" id="Path"></path>
                <path d="M165.5,39.39 L165.5,7.39 C165.5,-2.26 150.5,-2.28 150.5,7.39 L150.5,39.39 C150.5,49.04 165.5,49.06 165.5,39.39 Z" id="Path"></path>
                <path d="M98.69,55.28 L82.71,27.59" id="Path"></path>
                <path d="M105.17,51.49 L89.17,23.8 C84.34,15.44 71.38,22.99 76.17,31.37 L92.17,59.06 C97,67.42 109.96,59.87 105.17,51.49 Z" id="Path"></path>
                <path d="M55.28,98.69 L27.59,82.71" id="Path"></path>
                <path d="M59.06,92.22 L31.37,76.22 C22.99,71.38 15.43,84.34 23.8,89.22 L51.49,105.22 C59.87,110.06 67.43,97.1 59.06,92.22 Z" id="Path"></path>
                <path d="M39.39,158 L7.42,158" id="Path"></path>
                <path d="M39.39,150.5 L7.39,150.5 C-2.26,150.5 -2.28,165.5 7.39,165.5 L39.39,165.5 C49.04,165.5 49.06,150.5 39.39,150.5 Z" id="Path"></path>
                <path d="M55.28,217.31 L27.59,233.29" id="Path"></path>
                <path d="M51.49,210.83 L23.8,226.83 C15.44,231.66 22.99,244.62 31.37,239.83 L59.06,223.83 C67.42,219 59.87,206.04 51.49,210.83 Z" id="Path"></path>
                <path d="M98.69,260.72 L82.71,288.41" id="Path"></path>
                <path d="M92.22,256.94 L76.22,284.63 C71.38,293.01 84.34,300.57 89.22,292.2 L105.22,264.51 C110.06,256.13 97.1,248.57 92.22,256.94 Z" id="Path"></path>
                <path d="M158,276.61 L158,308.58" id="Path"></path>
                <path d="M150.5,276.61 L150.5,308.61 C150.5,318.26 165.5,318.28 165.5,308.61 L165.5,276.61 C165.5,266.96 150.5,266.94 150.5,276.61 Z" id="Path"></path>
                <path d="M217.31,260.72 L233.29,288.41" id="Path"></path>
                <path d="M210.83,264.51 L226.83,292.2 C231.66,300.56 244.62,293.01 239.83,284.63 L223.83,256.94 C219,248.58 206.04,256.13 210.83,264.51 Z" id="Path"></path>
                <path d="M260.72,217.31 L288.41,233.29" id="Path"></path>
                <path d="M256.94,223.78 L284.63,239.78 C293.01,244.62 300.57,231.66 292.2,226.78 L264.51,210.78 C256.13,205.94 248.57,218.9 256.94,223.78 Z" id="Path"></path>
                <path d="M276.61,158 L308.58,158" id="Path"></path>
                <path d="M276.61,165.5 L308.61,165.5 C318.26,165.5 318.28,150.5 308.61,150.5 L276.61,150.5 C266.96,150.5 266.94,165.5 276.61,165.5 Z" id="Path"></path>
                <path d="M260.72,98.69 L288.41,82.71" id="Path"></path>
                <path d="M264.51,105.17 L292.2,89.17 C300.56,84.34 293.01,71.38 284.63,76.17 L256.94,92.17 C248.58,97 256.13,109.96 264.51,105.17 Z" id="Path"></path>
                <path d="M217.31,55.28 L233.29,27.59" id="Path"></path>
                <path d="M223.78,59.06 L239.78,31.37 C244.62,22.99 231.66,15.43 226.78,23.8 L210.78,51.49 C205.94,59.87 218.9,67.43 223.78,59.06 Z" id="Path"></path>
</svg>